<?xml version="1.0" encoding="utf-8"?>
<!-- Generator: Adobe Illustrator 26.0.1, SVG Export Plug-In . SVG Version: 6.00 Build 0)  -->
<svg version="1.1" id="Layer_1" xmlns="http://www.w3.org/2000/svg" xmlns:xlink="http://www.w3.org/1999/xlink" x="0px" y="0px"
	 viewBox="0 0 100 100" style="enable-background:new 0 0 100 100;" xml:space="preserve">
<style type="text/css">
	.st0{fill-rule:evenodd;clip-rule:evenodd;fill:#FFA621;}
</style>
<g>
	<path class="st0" d="M29.8,41.8c-7.2,0-12.2,2.6-12.2,5c0,2.4,5,5,12.2,5s12.2-2.6,12.2-5S36.9,41.8,29.8,41.8z M29.8,53.7
		c-3.6,0-7.1-0.6-9.7-1.8c-2.8-1.3-4.4-3.1-4.4-5.1s1.6-3.8,4.4-5.1c2.6-1.2,6-1.8,9.7-1.8s7.1,0.6,9.7,1.8c2.8,1.3,4.4,3.1,4.4,5.1
		s-1.6,3.8-4.4,5.1C36.8,53,33.4,53.7,29.8,53.7z"/>
	<path class="st0" d="M29.8,61.2c-3.6,0-7.1-0.6-9.7-1.8c-2.8-1.3-4.4-3.1-4.4-5.1c0-0.5,0.4-1,1-1c0.5,0,1,0.4,1,1
		c0,2.4,5,5,12.2,5c7.2,0,12.2-2.6,12.2-5c0-0.5,0.4-1,1-1c0.5,0,1,0.4,1,1c0,2-1.6,3.8-4.4,5.1C36.8,60.5,33.4,61.2,29.8,61.2
		L29.8,61.2z"/>
	<path class="st0" d="M29.8,68.7c-1.9,0-3.6-0.2-5.3-0.5c-0.5-0.1-0.9-0.6-0.8-1.1c0.1-0.5,0.6-0.9,1.1-0.8c1.6,0.3,3.2,0.5,5,0.5
		c7.2,0,12.2-2.6,12.2-5c0-0.5,0.4-1,1-1c0.5,0,1,0.4,1,1c0,2-1.6,3.8-4.4,5.1C36.8,68,33.4,68.7,29.8,68.7L29.8,68.7z"/>
	<path class="st0" d="M29.8,76.2c-1.2,0-2.5-0.1-3.7-0.2c-0.5-0.1-0.9-0.6-0.8-1.1s0.6-0.9,1.1-0.8c1.1,0.1,2.3,0.2,3.4,0.2
		c7.2,0,12.2-2.6,12.2-5c0-0.5,0.4-1,1-1c0.5,0,1,0.4,1,1c0,2-1.6,3.8-4.4,5.1C36.8,75.6,33.4,76.2,29.8,76.2L29.8,76.2z"/>
	<path class="st0" d="M29.8,83.7c-4.9,0-6-0.4-8-1.2c-0.2-0.1-0.4-0.1-0.6-0.2c-0.5-0.2-0.8-0.7-0.6-1.2s0.7-0.8,1.2-0.6
		c0.2,0.1,0.4,0.1,0.6,0.2c1.8,0.7,2.8,1,7.3,1c5.5,0,12.2-2.7,12.2-5V46.8c0-0.5,0.4-1,1-1c0.5,0,1,0.4,1,1v30.1
		C43.8,81.1,34.7,83.7,29.8,83.7L29.8,83.7z"/>
	<path class="st0" d="M16.6,64.1c-0.5,0-1-0.4-1-1V46.8c0-0.5,0.4-1,1-1c0.5,0,1,0.4,1,1v16.4C17.6,63.7,17.2,64.1,16.6,64.1z"/>
	<path class="st0" d="M16.5,79.5c-1.6,0-3-1-3.5-2.5c-0.2-0.5,0.1-1.1,0.6-1.2s1.1,0.1,1.2,0.6c0.3,0.7,0.9,1.2,1.7,1.2
		c1,0,1.8-0.8,1.8-1.8c0-1-0.7-1.7-1.7-1.8c-1,0-1.9-0.4-2.6-1.1c-0.7-0.7-1.1-1.6-1.1-2.6c0-2.1,1.7-3.7,3.7-3.7c1.6,0,3,1,3.5,2.5
		c0.2,0.5-0.1,1.1-0.6,1.2c-0.5,0.2-1.1-0.1-1.2-0.6c-0.3-0.7-0.9-1.2-1.7-1.2c-1,0-1.8,0.8-1.8,1.8c0,0.5,0.2,0.9,0.5,1.3
		c0.3,0.3,0.8,0.5,1.3,0.5h0.1c2,0.1,3.5,1.8,3.5,3.7C20.3,77.8,18.6,79.5,16.5,79.5L16.5,79.5z"/>
	<path class="st0" d="M16.6,80.9c-0.5,0-1-0.4-1-1V66c0-0.5,0.4-1,1-1c0.5,0,1,0.4,1,1v13.9C17.6,80.4,17.2,80.9,16.6,80.9z"/>
	<path class="st0" d="M16.6,64.1c-4.9,0-8.8,4-8.8,8.8s4,8.8,8.8,8.8s8.8-4,8.8-8.8S21.5,64.1,16.6,64.1z M16.6,83.7
		c-5.9,0-10.8-4.8-10.8-10.8c0-5.9,4.8-10.8,10.8-10.8c5.9,0,10.8,4.8,10.8,10.8C27.4,78.9,22.6,83.7,16.6,83.7z"/>
	<path class="st0" d="M60.4,83.7c-6.5,0-12.8-1.8-18.2-5.3c-0.4-0.3-0.6-0.9-0.3-1.3c0.3-0.4,0.9-0.6,1.3-0.3c5.1,3.3,11.1,5,17.2,5
		c17.5,0,31.8-14.3,31.8-31.8S77.9,18.2,60.4,18.2c-14.1,0-26.6,9.4-30.5,22.9c-0.1,0.5-0.7,0.8-1.2,0.7c-0.5-0.1-0.8-0.7-0.7-1.2
		c2-6.9,6.2-13.1,12-17.4c5.9-4.5,13-6.9,20.4-6.9C79,16.3,94.1,31.4,94.1,50S79,83.7,60.4,83.7L60.4,83.7z"/>
	<path class="st0" d="M51.6,82.5c-0.1,0-0.1,0-0.2,0c-0.5-0.1-0.9-0.6-0.7-1.1l1.9-8.8l-10.2-5.9c-0.5-0.3-0.6-0.9-0.4-1.3
		s0.9-0.6,1.3-0.4l10.8,6.2c0.4,0.2,0.5,0.6,0.5,1l-2,9.5C52.5,82.2,52.1,82.5,51.6,82.5L51.6,82.5z"/>
	<path class="st0" d="M69.2,82.5c-0.4,0-0.8-0.3-0.9-0.8l-2-9.5c-0.1-0.4,0.1-0.8,0.5-1L78,64.7c0.4-0.2,0.8-0.2,1.1,0.1l6.6,6
		c0.4,0.4,0.4,1,0.1,1.4c-0.4,0.4-1,0.4-1.4,0.1l-6.1-5.5l-10.1,5.8l1.9,8.8c0.1,0.5-0.2,1-0.7,1.1C69.4,82.5,69.3,82.5,69.2,82.5
		L69.2,82.5z"/>
	<path class="st0" d="M93.1,52.9L93.1,52.9L84,52.4c-0.4,0-0.8-0.3-0.9-0.7l-3.4-12.6c-0.1-0.4,0.1-0.8,0.4-1.1l8.1-5.3
		c0.4-0.3,1-0.2,1.3,0.3c0.3,0.4,0.2,1-0.3,1.3l-7.5,4.9l3,11.3l8.4,0.4c0.5,0,0.9,0.5,0.9,1C94.1,52.5,93.6,52.9,93.1,52.9
		L93.1,52.9z"/>
	<path class="st0" d="M67,29.4H53.9c-0.4,0-0.8-0.3-0.9-0.7L49.8,19c-0.2-0.5,0.1-1.1,0.6-1.2c0.5-0.2,1.1,0.1,1.2,0.6l3,9.1h11.7
		l3-9.1c0.2-0.5,0.7-0.8,1.2-0.6c0.5,0.2,0.8,0.7,0.6,1.2l-3.2,9.8C67.7,29.2,67.4,29.4,67,29.4L67,29.4z"/>
	<path class="st0" d="M39.2,43.6c-0.1,0-0.2,0-0.2,0c-0.5-0.1-0.8-0.7-0.7-1.2l0.8-3.1l-7.5-4.9c-0.4-0.3-0.6-0.9-0.3-1.3
		c0.3-0.4,0.9-0.6,1.3-0.3l8.1,5.3c0.4,0.2,0.5,0.7,0.4,1.1l-1,3.8C40,43.3,39.6,43.6,39.2,43.6L39.2,43.6z"/>
	<path class="st0" d="M55.2,58.1h10.4l3.2-9.9l-8.4-6.1L52,48.2L55.2,58.1z M66.3,60.1H54.5c-0.4,0-0.8-0.3-0.9-0.7l-3.7-11.3
		c-0.1-0.4,0-0.8,0.4-1.1l9.6-7c0.3-0.2,0.8-0.2,1.1,0l9.6,7c0.3,0.2,0.5,0.7,0.4,1.1l-3.7,11.2C67.1,59.8,66.8,60.1,66.3,60.1
		L66.3,60.1z"/>
	<path class="st0" d="M60.4,41.9c-0.5,0-1-0.4-1-1V28.5c0-0.5,0.4-1,1-1c0.5,0,1,0.4,1,1v12.4C61.4,41.4,61,41.9,60.4,41.9z"/>
	<path class="st0" d="M70,48.8c-0.4,0-0.8-0.3-0.9-0.8c-0.1-0.5,0.2-1,0.7-1.1l12.3-2.7c0.5-0.1,1,0.2,1.1,0.7
		c0.1,0.5-0.2,1-0.7,1.1l-12.3,2.7C70.1,48.8,70.1,48.8,70,48.8L70,48.8z"/>
	<path class="st0" d="M50.8,48.8c-0.1,0-0.1,0-0.2,0L42.6,47c-0.5-0.1-0.8-0.6-0.7-1.1c0.1-0.5,0.6-0.8,1.1-0.7l8.1,1.8
		c0.5,0.1,0.8,0.6,0.7,1.1C51.7,48.5,51.3,48.8,50.8,48.8L50.8,48.8z"/>
	<path class="st0" d="M48,69.7c-0.2,0-0.4-0.1-0.5-0.2c-0.4-0.3-0.6-0.9-0.3-1.3l6.5-9.7c0.3-0.4,0.9-0.6,1.3-0.3
		c0.4,0.3,0.6,0.9,0.3,1.3l-6.5,9.7C48.6,69.6,48.3,69.7,48,69.7L48,69.7z"/>
	<path class="st0" d="M72.9,69.7c-0.3,0-0.6-0.1-0.8-0.4l-6.5-9.7c-0.3-0.4-0.2-1,0.3-1.3c0.4-0.3,1-0.2,1.3,0.3l6.5,9.7
		c0.3,0.4,0.2,1-0.3,1.3C73.2,69.7,73,69.8,72.9,69.7L72.9,69.7z"/>
</g>
</svg>
