<?xml version="1.0" encoding="utf-8"?>
<!-- Generator: Adobe Illustrator 26.0.1, SVG Export Plug-In . SVG Version: 6.00 Build 0)  -->
<svg version="1.1" id="Layer_1" xmlns="http://www.w3.org/2000/svg" xmlns:xlink="http://www.w3.org/1999/xlink" x="0px" y="0px"
	 viewBox="0 0 100 100" style="enable-background:new 0 0 100 100;" xml:space="preserve">
<style type="text/css">
	.st0{fill:#FFA621;}
</style>
<path class="st0" d="M10.4,26.1l4.9,1.2l0.9,6.2l0,0c0.1,0.9,0.8,1.6,1.7,1.8c0.1,0,0.2,0,0.4,0c0.8,0,1.5-0.4,1.8-1.1l2.7-5.1
	l5.7,1.2v0c0.9,0.2,1.8-0.2,2.2-1c0.4-0.8,0.3-1.8-0.2-2.4l-4.2-4.7l2.2-4.5c0.4-0.8,0.2-1.7-0.4-2.4c-0.6-0.6-1.6-0.8-2.4-0.4
	l-4.1,1.9l-4.3-3.8c-0.6-0.6-1.5-0.7-2.3-0.3c-0.8,0.4-1.2,1.1-1.2,2l0.2,5.8L10,22.2l0,0c-0.8,0.4-1.3,1.2-1.2,2.1
	C8.9,25.2,9.5,25.9,10.4,26.1L10.4,26.1z M15,22.2L15,22.2c0.8-0.4,1.2-1.1,1.2-2L16,14.5l4.3,3.8v0c0.6,0.6,1.5,0.7,2.3,0.3
	l4.1-1.9l-2.2,4.5C24,22,24.1,23,24.7,23.6l4.2,4.7l-5.7-1.2c-0.9-0.2-1.8,0.2-2.3,1.1l-2.7,5.1L17.4,27c-0.1-0.8-0.7-1.5-1.6-1.7
	l-4.9-1.2L15,22.2z"/>
<path class="st0" d="M71.5,30.3l5.6-1.2l2.7,5.1c0.4,0.7,1.1,1.1,1.8,1.1c0.1,0,0.2,0,0.4,0c0.9-0.1,1.6-0.9,1.7-1.8l0.9-6.2
	l4.9-1.2c0.9-0.2,1.5-0.9,1.6-1.8c0.1-0.9-0.4-1.7-1.2-2.1l-4.1-1.9l0.2-5.8v0c0-0.8-0.4-1.6-1.2-2c-0.8-0.4-1.6-0.2-2.3,0.3
	l-4.3,3.8l-4.1-1.9c-0.8-0.4-1.8-0.2-2.4,0.4c-0.6,0.6-0.8,1.6-0.4,2.4l2.2,4.5l-4.2,4.7c-0.6,0.7-0.7,1.6-0.2,2.4
	C69.8,30.1,70.7,30.5,71.5,30.3L71.5,30.3z M75.3,23.6c0.6-0.6,0.7-1.5,0.3-2.3l-2.2-4.5l4.1,1.9h0c0.8,0.4,1.6,0.2,2.3-0.3l4.3-3.8
	l-0.2,5.8h0c0,0.8,0.4,1.6,1.2,1.9l4.1,1.9l-4.9,1.2v0c-0.8,0.2-1.4,0.9-1.6,1.7l-0.9,6.2L79,28.1l0,0c-0.4-0.7-1.1-1.1-1.8-1.1
	c-0.1,0-0.3,0-0.4,0l-5.7,1.2L75.3,23.6z"/>
<path class="st0" d="M42.6,16.1c0.1,0.1,0.1,0.2,0.1,0.3l-2.3,7.5v0c-0.3,1,0.1,2,0.9,2.6c0.8,0.6,1.9,0.6,2.7,0l5.8-4.3
	c0.1-0.1,0.2-0.1,0.3,0l5.8,4.3c0.8,0.6,1.9,0.6,2.7,0c0.8-0.6,1.2-1.6,0.9-2.6l-2.3-7.5v0c0-0.1,0-0.2,0.1-0.3l4.9-3.9
	c0.8-0.6,1.1-1.7,0.7-2.6S61.8,8,60.9,8h-5.6C55.1,8,55,7.9,55,7.8l-2.8-6.6c-0.4-0.9-1.2-1.4-2.2-1.4s-1.8,0.6-2.2,1.4L45,7.8
	C45,7.9,44.9,8,44.8,8h-5.6c-1,0-1.9,0.6-2.2,1.6s0,2,0.7,2.6L42.6,16.1z M39.1,10.1h5.6c0.9,0,1.8-0.6,2.1-1.4L49.8,2
	c0-0.1,0.1-0.2,0.2-0.2s0.2,0.1,0.2,0.2l2.8,6.6c0.4,0.9,1.2,1.4,2.1,1.4h5.6c0.1,0,0.2,0.1,0.2,0.2c0,0.1,0,0.2-0.1,0.3l-4.9,3.9
	C55.3,15,55,16,55.3,16.9l2.3,7.5h0c0,0.1,0,0.2-0.1,0.3c-0.1,0.1-0.2,0.1-0.3,0l-5.8-4.3c-0.8-0.6-2-0.6-2.8,0l-5.8,4.3
	c-0.1,0.1-0.2,0.1-0.3,0s-0.1-0.2-0.1-0.3l2.3-7.5c0.3-0.9,0-1.9-0.8-2.5L39,10.5c-0.1-0.1-0.1-0.2-0.1-0.3
	C38.9,10.1,39,10.1,39.1,10.1L39.1,10.1z"/>
<path class="st0" d="M57.3,43.5v5.2c0,0.6,0.5,1,1,1c0.6,0,1-0.5,1-1v-5.2c0-1.2,0.9-2.1,2.1-2.1c1.2,0,2.1,0.9,2.1,2.1v1
	c0,0.6,0.5,1,1,1c0.6,0,1-0.5,1-1v-1v0c0-2.3-1.9-4.2-4.2-4.2S57.3,41.2,57.3,43.5z"/>
<path class="st0" d="M51,48.8V30c0-0.6-0.5-1-1-1s-1,0.5-1,1v18.8c0,0.6,0.5,1,1,1S51,49.3,51,48.8z"/>
<path class="st0" d="M43.8,85.2h37.5c0.3,0,0.5-0.1,0.7-0.3c0.2-0.2,0.3-0.5,0.3-0.7V68.5h7.3c0.4,0,0.7-0.2,0.9-0.6
	c0.2-0.3,0.2-0.8-0.1-1.1l-8.3-12.5c-0.2-0.3-0.5-0.5-0.9-0.5H18.8c-0.3,0-0.7,0.2-0.9,0.5L9.6,66.9c-0.2,0.3-0.2,0.7-0.1,1.1
	c0.2,0.3,0.5,0.6,0.9,0.6h7.3v15.6c0,0.3,0.1,0.5,0.3,0.7c0.2,0.2,0.5,0.3,0.7,0.3h10.4c0.6,0,1-0.5,1-1c0-0.6-0.5-1-1-1h-9.4V68.5
	h15.6c0.3,0,0.7-0.2,0.9-0.5l6.4-9.6l0,25.7c0,0.3,0.1,0.5,0.3,0.7C43.2,85.1,43.5,85.2,43.8,85.2L43.8,85.2z M80.7,56l6.9,10.4
	h-6.4c-0.3,0-0.5,0.1-0.7,0.3c-0.2,0.2-0.3,0.5-0.3,0.7v15.6H44.8l0-24.7l6.4,9.6h0c0.2,0.3,0.5,0.5,0.9,0.5h14.6c0.6,0,1-0.5,1-1
	s-0.5-1-1-1h-14L45.7,56L80.7,56z M34.9,66.5H12.4L19.3,56l22.5,0L34.9,66.5z"/>
<path class="st0" d="M75,67.5c0,2.8-4.2,2.8-4.2,0S75,64.7,75,67.5"/>
<path class="st0" d="M37.5,84.2c0,2.8-4.2,2.8-4.2,0S37.5,81.4,37.5,84.2"/>
<path class="st0" d="M35.7,41.4c0.6-0.2,0.9-0.8,0.7-1.3c-0.2-0.5-0.2-1,0-1.4c0.4-1.1,1.7-1.8,2.9-1.4c0.9,0.3,1.4,0.9,1.4,3.2v8.3
	c0,0.6,0.5,1,1,1c0.6,0,1-0.5,1-1v-8.3c0.3-2.2-0.8-4.3-2.8-5.2c-2.3-0.7-4.7,0.5-5.5,2.7c-0.3,0.9-0.3,1.9,0,2.8
	c0.1,0.3,0.3,0.5,0.5,0.6S35.5,41.5,35.7,41.4L35.7,41.4z"/>
</svg>
