<?xml version="1.0" encoding="utf-8"?>
<!-- Generator: Adobe Illustrator 26.0.1, SVG Export Plug-In . SVG Version: 6.00 Build 0)  -->
<svg version="1.1" id="Layer_1" xmlns="http://www.w3.org/2000/svg" xmlns:xlink="http://www.w3.org/1999/xlink" x="0px" y="0px"
	 viewBox="0 0 100 100" style="enable-background:new 0 0 100 100;" xml:space="preserve">
<style type="text/css">
	.st0{fill:#FFA621;}
</style>
<g>
	<path class="st0" d="M32.1,48.8v20.6c0,2.4-1.9,4.3-4.3,4.3h-0.7c-2.4,0-4.3-1.9-4.3-4.3V48.8c0-2.4,1.9-4.3,4.3-4.3h0.7
		C30.2,44.5,32.1,46.4,32.1,48.8L32.1,48.8z"/>
	<path class="st0" d="M72.9,44.5h-0.7c-2.4,0-4.3,1.9-4.3,4.3v20.6c0,2.4,1.9,4.3,4.3,4.3h0.7c2.4,0,4.3-1.9,4.3-4.3V48.8
		C77.2,46.4,75.3,44.5,72.9,44.5z"/>
	<path class="st0" d="M53.4,82.2h-8.2c-2.2,0-4,1.8-4,4v0.7c0,2.2,1.8,4,4,4h8.2c2.2,0,4-1.8,4-4v-0.7C57.4,84,55.6,82.2,53.4,82.2z
		"/>
	<path class="st0" d="M74.9,42.6v0.7c1.5,0.5,2.7,1.7,3.4,3.1h1.6c0.7,0,1.4,0.1,2.1,0.3v-5.1c0.2-8.6-3.1-16.9-9.2-23
		c-6-6.1-14.2-9.6-22.8-9.6c-8.6,0-16.8,3.4-22.8,9.6c-6,6.1-9.3,14.4-9.2,23v5c0.7-0.2,1.4-0.3,2.1-0.3h1.6
		c0.7-1.5,1.9-2.6,3.4-3.1v-0.7c0.2-8.8,5-16.8,12.6-21.1c7.6-4.3,17-4.3,24.6,0C69.9,25.8,74.7,33.8,74.9,42.6L74.9,42.6z"/>
	<path class="st0" d="M50,19.3c-8.2,0-15.8,4.3-20,11.3h2c1.7,0,3.4-0.6,4.7-1.6l1.5-1.1c3.4-2.6,7.5-4,11.8-4s8.4,1.4,11.8,4
		l1.5,1.2c1.3,1,3,1.6,4.7,1.6h2C65.8,23.6,58.2,19.3,50,19.3L50,19.3z"/>
	<path class="st0" d="M21.2,69.4V48.8c0-0.3,0-0.6,0.1-0.9h-1c-1.4,0-2.8,0.4-4.1,1.2l-2.6,1.7c-0.9,0.6-1.4,1.6-1.4,2.6v11.4
		c0,1.1,0.6,2,1.4,2.6l2.6,1.7c1.2,0.8,2.6,1.2,4.1,1.2h1h0C21.2,70,21.2,69.7,21.2,69.4L21.2,69.4z"/>
	<path class="st0" d="M86.5,50.8l-2.6-1.7h0c-1.2-0.8-2.6-1.2-4.1-1.2h-1h0c0,0.3,0.1,0.6,0.1,0.9v20.6c0,0.3,0,0.6-0.1,0.9h1h0
		c1.5,0,2.9-0.4,4.1-1.2l2.6-1.7c0.9-0.6,1.4-1.6,1.4-2.6V53.4C87.9,52.4,87.3,51.4,86.5,50.8L86.5,50.8z"/>
	<path class="st0" d="M72.9,75.3h-1.1v1.4c0,5.1-4.1,9.2-9.2,9.2H59c0,0.1,0,0.3,0,0.4V87c0,0.2,0,0.3,0,0.5h3.6
		c5.9,0,10.7-4.8,10.7-10.7v-1.4L72.9,75.3z"/>
</g>
</svg>
