<?xml version="1.0" encoding="utf-8"?>
<!-- Generator: Adobe Illustrator 26.0.1, SVG Export Plug-In . SVG Version: 6.00 Build 0)  -->
<svg version="1.1" id="Layer_1" xmlns="http://www.w3.org/2000/svg" xmlns:xlink="http://www.w3.org/1999/xlink" x="0px" y="0px"
	 viewBox="0 0 100 100" style="enable-background:new 0 0 100 100;" xml:space="preserve">
<style type="text/css">
	.st0{fill-rule:evenodd;clip-rule:evenodd;fill:#FFA621;}
</style>
<path class="st0" d="M22.1,26.5h70.5c1.3,0,2.3,1,2.3,2.3v42.5c0,1.3-1,2.3-2.3,2.3l-70.5,0c-1.3,0-2.3-1-2.3-2.3V28.8
	C19.8,27.5,20.9,26.5,22.1,26.5L22.1,26.5z M11.2,5h46.2c3.4,0,6.2,2.8,6.2,6.2v12.5h-2.8V14L7.9,14v67.3h52.8v-5.1h2.8v12.5
	c0,3.4-2.8,6.2-6.2,6.2H11.2C7.8,95,5,92.2,5,88.8V11.2C5,7.8,7.8,5,11.2,5L11.2,5z M29.8,89.7c-0.8,0-1.5-0.7-1.5-1.5
	c0-0.8,0.7-1.5,1.5-1.5h9c0.8,0,1.5,0.7,1.5,1.5c0,0.8-0.7,1.5-1.5,1.5H29.8z M39.3,54.5c0.1,0.8-0.5,1.6-1.3,1.7
	c-0.8,0.1-1.6-0.5-1.7-1.3c0-0.3-0.2-0.6-0.3-0.8C35.9,54,35.8,54,35.7,54c-0.1,0-0.3,0.1-0.4,0.2c-0.2,0.2-0.3,0.5-0.3,0.9
	c0,0.4,0.1,0.7,0.3,0.9c0.1,0.1,0.2,0.2,0.4,0.2c1.1,0,2,0.5,2.7,1.3c0.6,0.7,1,1.7,1,2.8c0,1.1-0.4,2.1-1,2.8
	c-0.3,0.4-0.7,0.7-1.2,0.9c-0.1,0.8-0.7,1.4-1.5,1.4s-1.4-0.6-1.5-1.4c-0.4-0.2-0.7-0.4-1-0.8c-0.6-0.6-1-1.5-1.1-2.5
	c-0.1-0.8,0.5-1.6,1.3-1.7c0.8-0.1,1.6,0.5,1.7,1.3c0,0.3,0.2,0.6,0.3,0.7c0.1,0.1,0.2,0.2,0.3,0.2c0.1,0,0.3-0.1,0.4-0.2
	c0.2-0.2,0.3-0.5,0.3-0.9s-0.1-0.7-0.3-0.9c-0.1-0.1-0.2-0.2-0.4-0.2c-1.1,0-2-0.5-2.7-1.3c-0.6-0.7-1-1.7-1-2.8
	c0-1.1,0.4-2.1,1-2.8c0.3-0.4,0.7-0.7,1.2-1c0.1-0.8,0.7-1.4,1.5-1.4c0.8,0,1.4,0.6,1.5,1.4c0.4,0.2,0.7,0.4,1,0.8
	C38.8,52.7,39.2,53.6,39.3,54.5L39.3,54.5z M22.6,36.2v5.6h69.6v-5.6H22.6z M85.8,65.7c0.8,0,1.5,0.7,1.5,1.5c0,0.8-0.7,1.5-1.5,1.5
	l-12,0c-0.8,0-1.5-0.7-1.5-1.5c0-0.8,0.7-1.5,1.5-1.5L85.8,65.7z M85.8,60.6c0.8,0,1.5,0.7,1.5,1.5c0,0.8-0.7,1.5-1.5,1.5l-12,0
	c-0.8,0-1.5-0.7-1.5-1.5c0-0.8,0.7-1.5,1.5-1.5L85.8,60.6z M85.8,55.4c0.8,0,1.5,0.7,1.5,1.5c0,0.8-0.7,1.5-1.5,1.5l-12,0
	c-0.8,0-1.5-0.7-1.5-1.5c0-0.8,0.7-1.5,1.5-1.5L85.8,55.4z M35.7,47.4C41.4,47.4,46,52,46,57.7C46,63.4,41.4,68,35.7,68
	s-10.3-4.6-10.3-10.3C25.4,52,30,47.4,35.7,47.4z"/>
</svg>
