<?xml version="1.0" encoding="utf-8"?>
<!-- Generator: Adobe Illustrator 26.0.1, SVG Export Plug-In . SVG Version: 6.00 Build 0)  -->
<svg version="1.1" id="Layer_1" xmlns="http://www.w3.org/2000/svg" xmlns:xlink="http://www.w3.org/1999/xlink" x="0px" y="0px"
	 viewBox="0 0 100 100" style="enable-background:new 0 0 100 100;" xml:space="preserve">
<style type="text/css">
	.st0{fill:#FFA621;}
</style>
<g>
	<path class="st0" d="M20.3,21.4v39.6c0,8.5,5,16.1,14.9,22.5c6.5,4.2,13,6.5,14.8,7.1c1.8-0.6,8.3-2.9,14.8-7.1
		c9.9-6.4,14.9-14,14.9-22.5V21.4L50,9.5L20.3,21.4z M57.8,40.6v4.7h1.6c2.6,0,4.7,2.1,4.7,4.7v9.4c0,2.6-2.1,4.7-4.7,4.7H40.6
		c-2.6,0-4.7-2.1-4.7-4.7V50c0-2.6,2.1-4.7,4.7-4.7h1.6v-4.7c0-4.3,3.5-7.8,7.8-7.8S57.8,36.3,57.8,40.6z"/>
	<path class="st0" d="M40.6,48.4h18.8c0.9,0,1.6,0.9,1.6,1.6v9.4c0,0.9-0.7,1.6-1.6,1.6H40.6c-0.9,0-1.6-0.9-1.6-1.6V50
		C39.1,49.1,39.8,48.4,40.6,48.4z"/>
	<path class="st0" d="M45.3,40.6v4.7h9.4v-4.7c0-2.6-2.1-4.7-4.7-4.7S45.3,38,45.3,40.6z"/>
	<path class="st0" d="M84.2,13.1L52.9,0.6C52,0.2,51,0,50,0s-2,0.2-2.9,0.6L15.8,13.1c-3,1.2-4.9,4-4.9,7.3v40.6
		c0,27.4,35.3,38.3,36.8,38.7c0.7,0.2,1.5,0.3,2.2,0.3c0.8,0,1.5-0.1,2.2-0.3c1.5-0.5,36.8-11.4,36.8-38.7V20.3
		C89.1,17.1,87.1,14.3,84.2,13.1L84.2,13.1z M82.8,60.9c0,5.3-1.7,10.4-5.2,15c-2.7,3.7-6.5,7-11.1,10.1c-7.9,5.1-15.7,7.5-16,7.6
		c-0.1,0-0.3,0.1-0.4,0.1s-0.3,0-0.4-0.1c-0.3-0.1-8.1-2.5-16-7.6C28.8,83,25.1,79.6,22.4,76c-3.4-4.6-5.2-9.7-5.2-15V20.3
		c0-0.6,0.4-1.2,1-1.5L49.4,6.4c0.4-0.1,0.8-0.1,1.2,0l31.3,12.5c0.6,0.2,1,0.8,1,1.5L82.8,60.9L82.8,60.9z"/>
</g>
</svg>
