<?xml version="1.0" encoding="utf-8"?>
<!-- Generator: Adobe Illustrator 26.0.1, SVG Export Plug-In . SVG Version: 6.00 Build 0)  -->
<svg version="1.1" id="Layer_1" xmlns="http://www.w3.org/2000/svg" xmlns:xlink="http://www.w3.org/1999/xlink" x="0px" y="0px"
	 viewBox="0 0 100 100" style="enable-background:new 0 0 100 100;" xml:space="preserve" fill="#FFa621">
<path d="M8,13.5c-4.4,0-8,3.6-8,8v57.1c0,4.4,3.6,8,8,8h84c4.4,0,8-3.6,8-8V21.4c0-4.4-3.6-8-8-8L8,13.5z M8,16.6h84
	c2.7,0,4.9,2.1,4.9,4.9v6.6H3.1v-6.6C3.1,18.7,5.3,16.6,8,16.6L8,16.6z M9.3,20.7c-0.4,0-0.8,0.2-1.1,0.5c-0.3,0.3-0.5,0.7-0.5,1.1
	c0,0.9,0.7,1.6,1.6,1.6c0.9,0,1.6-0.7,1.6-1.6c0-0.4-0.2-0.8-0.4-1.1c-0.1-0.1-0.3-0.3-0.5-0.3C9.7,20.7,9.5,20.7,9.3,20.7z
	 M13.7,20.7L13.7,20.7c-0.2,0-0.4,0-0.6,0.1c-0.2,0.1-0.4,0.2-0.5,0.3c-0.3,0.3-0.5,0.7-0.5,1.1c0,0.8,0.7,1.5,1.5,1.6v0h0h0v0
	c0.8,0,1.5-0.7,1.5-1.6c0-0.4-0.2-0.8-0.4-1.1c-0.1-0.1-0.3-0.3-0.5-0.3C14.1,20.7,13.9,20.7,13.7,20.7L13.7,20.7L13.7,20.7
	L13.7,20.7L13.7,20.7z M18.3,20.7c-0.9,0-1.6,0.7-1.6,1.6c0,0.9,0.7,1.6,1.6,1.6h23.1h0c0.9,0,1.6-0.7,1.6-1.6
	c0-0.4-0.2-0.8-0.5-1.1c-0.3-0.3-0.7-0.5-1.1-0.5L18.3,20.7z M3.1,31.2h93.8v47.3c0,2.7-2.1,4.9-4.9,4.9H8c-2.7,0-4.9-2.1-4.9-4.9
	L3.1,31.2z M16.9,37.6c-3.2,0-5.8,2.6-5.8,5.8v27c0,3.2,2.6,5.8,5.8,5.8h23.5c3.2,0,5.8-2.6,5.8-5.8v-27c0-3.2-2.6-5.8-5.8-5.8
	L16.9,37.6z M55.6,37.6c-2.5,0-4.6,2.1-4.6,4.6v6.7c0,2.5,2.1,4.6,4.6,4.6h25.9c2.5,0,4.6-2.1,4.6-4.6l0-6.7c0-2.5-2.1-4.6-4.6-4.6
	L55.6,37.6z M16.9,40.7h23.5c1.5,0,2.7,1.2,2.7,2.7v27c0,1.5-1.2,2.7-2.7,2.7H16.9c-1.5,0-2.7-1.2-2.7-2.7l0-27
	C14.2,41.9,15.4,40.7,16.9,40.7L16.9,40.7z M55.6,40.7h25.9c0.9,0,1.5,0.6,1.5,1.5v6.7c0,0.9-0.6,1.5-1.5,1.5H55.6
	c-0.9,0-1.5-0.6-1.5-1.5l0-6.7C54.1,41.4,54.7,40.7,55.6,40.7L55.6,40.7z M55.8,56.6c-2.6,0-4.8,2.2-4.8,4.8v10
	c0,2.6,2.2,4.8,4.8,4.8h6.3c2.6,0,4.8-2.2,4.8-4.8v-10c0-2.6-2.2-4.8-4.8-4.8L55.8,56.6z M75,56.6c-2.6,0-4.8,2.2-4.8,4.8v10
	c0,2.6,2.2,4.8,4.8,4.8h6.3c2.6,0,4.8-2.2,4.8-4.8v-10c0-2.6-2.2-4.8-4.8-4.8L75,56.6z M55.8,59.7h6.3c1,0,1.7,0.7,1.7,1.7v10
	c0,1-0.7,1.7-1.7,1.7h-6.3c-1,0-1.7-0.7-1.7-1.7v-10C54.1,60.4,54.8,59.7,55.8,59.7z M75,59.7h6.3c1,0,1.7,0.7,1.7,1.7v10
	c0,1-0.7,1.7-1.7,1.7H75c-1,0-1.7-0.7-1.7-1.7v-10C73.3,60.4,74,59.7,75,59.7z"/>
</svg>
