<svg id="Layer_1" data-name="Layer 1" xmlns="http://www.w3.org/2000/svg" viewBox="0 0 1080 1080"><defs><style>.cls-1{fill:#ffa621;}.cls-1,.cls-2,.cls-3{fill-rule:evenodd;}.cls-2,.cls-4{fill:#fff;}.cls-3{fill:#000054;}</style></defs><path class="cls-1" d="M540,.6C838.23.6,1080,242.1,1080,540s-241.77,539.4-540,539.4S0,837.91,0,540,241.76.6,540,.6"/><path class="cls-2" d="M540,31c281.43,0,509.57,227.89,509.57,509S821.43,1049,540,1049,30.43,821.12,30.43,540,258.57,31,540,31"/><path class="cls-3" d="M540,61.39c264.62,0,479.14,214.28,479.14,478.61S804.62,1018.61,540,1018.61,60.85,804.33,60.85,540,275.38,61.39,540,61.39"/><path class="cls-4" d="M939.48,275.69q6.81,10.26,13.09,20.86c-123.72-13.9-262.81-4.21-404.81,32.95h0C345.47,382.44,175.7,481.09,64.36,598Q62.85,585.39,62,572.6c113.68-114,281.87-209.74,480.72-261.81l1.19-.39h.34c138-36,273.49-46.38,395.25-34.71M134.14,794.45C247.84,676.4,419.68,577,623.82,523.51l1.19-.4h.34c136.42-35.54,270.32-46.13,391-35.1q1,9.75,1.71,19.63c-119.75-11.41-253.12-1-389.14,34.57h0C426.37,595.22,256.44,694,145.1,811.08Q139.46,802.89,134.14,794.45ZM590.76,445.24h0C389.18,498,220.29,596.42,110.17,712.88q-6.08,6.42-11.88,12.9-8.43-20-15.06-40.9C198,564.12,372.77,462.29,580.61,407.82L583,407h.69c141.8-36.78,280.93-46.82,405.54-33.8q7.38,19.86,13,40.52C877.17,398.25,735.52,407.36,590.76,445.24Z"/></svg>