<svg xmlns="http://www.w3.org/2000/svg" width="104.144" height="81" viewBox="0 0 104.144 81"><g transform="translate(-1.856 -12.71)"><path d="M40.681,20.221l10.812,8.447L25.537,61.89l7.539,5.89L76.1,12.71Z" transform="translate(7.678)" fill="#25a791"/><path d="M55.393,78.055,44.576,69.6,70.532,36.381,63,30.495,19.972,85.565Z" transform="translate(5.874 5.767)" fill="#0ba98f"/><path d="M8.812,38.048a26.033,26.033,0,0,0,3.643.221c2.958,0,4.769-.486,5.85-1.347a3.964,3.964,0,0,0,1.545-3.157A3.723,3.723,0,0,0,16.892,30.1v-.044a3.363,3.363,0,0,0,2.451-3.179,3.239,3.239,0,0,0-1.788-2.914,8.219,8.219,0,0,0-4.393-.839,26.808,26.808,0,0,0-4.349.309Zm3.334-12.385a9.188,9.188,0,0,1,1.435-.088c1.523,0,2.384.6,2.384,1.722,0,1.1-.949,1.832-2.715,1.832h-1.1Zm0,5.873h1.148c1.678,0,3.025.6,3.025,2.1,0,1.567-1.347,2.141-2.87,2.141a10.617,10.617,0,0,1-1.3-.044Zm9.968-8.3v8.3c0,4.747,2.208,6.822,5.961,6.822,3.886,0,6.2-2.186,6.2-6.778V23.234H30.923V31.8c0,2.627-.971,3.864-2.738,3.864-1.722,0-2.693-1.3-2.693-3.864V23.234Zm21.871,14.88v-6.2l4.9-8.676H45.11l-1.5,3.577c-.442,1.06-.795,1.921-1.126,2.848h-.044c-.375-.971-.684-1.766-1.148-2.848l-1.523-3.577H35.926l4.7,8.787v6.093Z" transform="translate(-6.956 1.888)" fill="#25a791"/><path d="M49.626,63.644a8.875,8.875,0,0,0,3.843.825c3.722,0,5.473-1.932,5.473-4.205,0-1.911-1.127-3.159-3.521-4.044-1.751-.664-2.515-1.046-2.515-1.911,0-.7.644-1.308,1.972-1.308a6.447,6.447,0,0,1,2.837.644l.684-2.475a8.309,8.309,0,0,0-3.461-.684c-3.2,0-5.131,1.771-5.131,4.085,0,1.972,1.469,3.219,3.722,4,1.63.583,2.274,1.066,2.274,1.911,0,.885-.744,1.469-2.153,1.469a7.824,7.824,0,0,1-3.4-.845Zm19.458-7.606h-4.99V53.221h5.292V50.706h-8.37V64.268h8.652V61.753H64.094V58.533h4.99Zm2.68,8.229h8.471V61.692H74.842V50.706H71.763Zm10.277,0h8.471V61.692H85.118V50.706H82.04Z" transform="translate(15.489 12.248)" fill="#0ba98f"/></g></svg>