<svg width="84" height="81" viewBox="0 0 84 81" fill="none" xmlns="http://www.w3.org/2000/svg">
<path d="M54.9465 66.5781C53.5027 62.2976 49.6965 60.5854 45.8246 59.0708C42.8059 57.8854 39.8527 56.7659 36.834 55.5806L28.434 64.0757L19.9027 55.5806C16.884 56.7659 13.9309 57.8854 10.9121 59.0708C7.10587 60.5854 3.29962 62.3635 1.85587 66.5781C1.59337 67.3684 0.477743 73.361 0.0183682 76.1928C-0.112882 76.9171 0.477743 77.6415 1.19962 77.6415H28.434H55.6684C56.3902 77.6415 56.9809 76.983 56.8496 76.1928C56.3246 73.4269 55.209 67.3684 54.9465 66.5781Z" fill="#0BA98F"/>
<path d="M10.5841 49.3904C14.3248 50.51 18.0654 51.2343 21.806 51.6953C22.1998 51.7612 22.3966 51.2343 22.0685 51.0368C19.2466 48.9953 17.6716 45.6368 17.6716 42.41V39.3148V34.8368L19.706 34.7051C23.4466 34.5075 27.1216 33.3221 30.9279 31.149L31.9779 30.5563L33.0279 31.149C34.4716 31.9392 36.0466 32.5978 37.6216 32.9929L39.1966 33.4539V39.3148V41.2246C37.3591 44.3197 34.6685 45.966 31.256 46.2295C30.9935 45.5709 30.4029 45.11 29.6154 45.11H27.1873C26.2029 45.11 25.4154 45.9002 25.4154 46.888C25.4154 47.8758 26.2029 48.666 27.1873 48.666H29.6154C30.4029 48.666 30.9935 48.2051 31.256 47.4807C34.4716 47.2831 37.0966 45.966 39.0654 43.4636C38.7373 46.5587 37.1623 49.3246 34.7341 51.0368C34.406 51.2343 34.6029 51.7612 34.9966 51.6953C38.7373 51.3002 42.4779 50.51 46.2185 49.3904C47.6623 48.9295 48.5154 47.4148 47.9904 45.9661L45.6935 38.8539L45.5623 38.5246C46.0873 37.9978 46.4154 37.2734 46.4154 36.4831V31.61C46.4154 30.0953 45.1685 28.8441 43.6591 28.8441H42.281V28.7782C41.231 25.749 39.0654 22.588 36.1779 21.0075C35.3904 20.6124 34.5373 20.6782 33.6841 20.7441C32.9623 20.1514 32.1748 19.4929 31.256 19.1636C30.3373 18.8343 29.3529 18.7026 28.3029 18.7026C22.0029 18.7026 16.4248 22.7197 14.3904 28.7124V28.7782H13.0123C11.5029 28.7782 10.256 30.0295 10.256 31.5441V36.4831C10.256 37.2734 10.5841 37.9978 11.1091 38.5246V38.8539L8.74663 45.9002C8.28726 47.4148 9.07476 48.9953 10.5841 49.3904Z" fill="#0BA98F"/>
<path d="M68.2684 24.8272C69.5006 24.8272 70.4996 23.8247 70.4996 22.5881C70.4996 21.3516 69.5006 20.3491 68.2684 20.3491C67.0361 20.3491 66.0371 21.3516 66.0371 22.5881C66.0371 23.8247 67.0361 24.8272 68.2684 24.8272Z" fill="#0BA98F"/>
<path d="M59.409 24.8272C60.6413 24.8272 61.6402 23.8247 61.6402 22.5881C61.6402 21.3516 60.6413 20.3491 59.409 20.3491C58.1767 20.3491 57.1777 21.3516 57.1777 22.5881C57.1777 23.8247 58.1767 24.8272 59.409 24.8272Z" fill="#0BA98F"/>
<path d="M50.4842 24.8272C51.7165 24.8272 52.7154 23.8247 52.7154 22.5881C52.7154 21.3516 51.7165 20.3491 50.4842 20.3491C49.2519 20.3491 48.2529 21.3516 48.2529 22.5881C48.2529 23.8247 49.2519 24.8272 50.4842 24.8272Z" fill="#0BA98F"/>
<path d="M66.4966 6.65137H52.256C45.0372 6.65137 38.9341 11.4587 36.9653 18.044C37.1622 18.1099 37.3591 18.2416 37.6216 18.3075C38.5403 18.8343 39.4591 19.427 40.3122 20.2172C41.4278 14.6197 46.3497 10.405 52.256 10.405H66.4966C73.256 10.405 78.7028 15.9367 78.7028 22.6538C78.7028 29.4367 73.1903 34.9026 66.4966 34.9026H64.9216C64.4622 34.9026 64.0028 35.1001 63.6747 35.3636L56.981 41.5538V36.8123C56.981 35.7587 56.1278 34.9026 55.1435 34.9026H49.4997V36.5489C49.4997 37.2733 49.3685 37.9977 49.106 38.6562H53.2403V45.7684C53.2403 46.4928 53.6997 47.1514 54.356 47.4806C54.6185 47.6123 54.881 47.6123 55.0778 47.6123C55.5372 47.6123 55.9966 47.4148 56.3247 47.1514L65.6435 38.6562H66.4966C75.2903 38.6562 82.4435 31.4782 82.4435 22.6538C82.5091 13.8294 75.356 6.65137 66.4966 6.65137Z" fill="#0BA98F"/>
</svg>
