<svg width="80" height="81" viewBox="0 0 80 81" fill="none" xmlns="http://www.w3.org/2000/svg">
<g clip-path="url(#clip0_222_27)">
<path d="M62.3337 68.0002C46.8337 75.3335 31.8337 75.6668 17.667 68.0002C17.667 58.5002 22.8337 50.1668 30.5003 46.3335C33.0003 48.5002 36.3337 49.8335 40.0003 49.8335C43.667 49.8335 47.0003 48.5002 49.5003 46.3335C57.0003 50.3335 62.3337 58.5002 62.3337 68.0002Z" fill="#0BA98F"/>
<path d="M40.0005 46.667C46.3518 46.667 51.5005 41.5183 51.5005 35.167C51.5005 28.8157 46.3518 23.667 40.0005 23.667C33.6492 23.667 28.5005 28.8157 28.5005 35.167C28.5005 41.5183 33.6492 46.667 40.0005 46.667Z" fill="#0BA98F"/>
<path d="M80.0002 56.667C74.8335 59.167 69.6668 60.5003 64.6668 60.8337C62.8335 53.667 58.1668 47.3337 51.8335 43.8337C52.3335 43.3337 52.6668 42.667 53.0002 42.0003C53.8335 41.3337 54.8335 40.667 55.8335 40.167C57.8335 41.8337 60.3335 42.8337 63.0002 42.8337C65.8335 42.8337 68.3335 41.8337 70.1668 40.167C76.0002 43.167 80.0002 49.5003 80.0002 56.667Z" fill="#0BA98F"/>
<path d="M71.8333 31.667C71.8333 36.5003 68 40.3337 63.1667 40.3337C59.1667 40.3337 55.8333 37.667 54.8333 34.0003C54.8333 33.3337 54.6667 32.667 54.5 32.0003V31.8337C54.5 27.0003 58.3333 23.167 63.1667 23.167C68 23.167 71.8333 26.8337 71.8333 31.667Z" fill="#0BA98F"/>
<path d="M28.1667 44.0002C21.8333 47.5002 17.1667 53.8335 15.3333 61.0002C10 60.8335 5 59.3335 0 56.6668C0 49.5002 4 43.1668 9.66667 40.3335C11.6667 42.0002 14.1667 43.0002 16.8333 43.0002C19.5 43.0002 22.1667 42.0002 24 40.3335C25 40.8335 26 41.5002 26.8333 42.1668C27.3333 42.8335 27.6667 43.3335 28.1667 44.0002Z" fill="#0BA98F"/>
<path d="M25.6668 31.6668V31.8335C25.5002 32.5002 25.5002 33.1668 25.3335 33.8335C24.3335 37.5002 21.0002 40.1668 17.0002 40.1668C12.1668 40.1668 8.3335 36.3335 8.3335 31.5002C8.3335 26.6668 12.1668 22.8335 17.0002 22.8335C21.8335 22.8335 25.6668 26.8335 25.6668 31.6668Z" fill="#0BA98F"/>
<path d="M50.0002 4.76159L46.9051 1.6665L39.1668 9.40475L31.4286 1.6665L28.3335 4.76159L36.0717 12.4998L28.3335 20.2381L31.4286 23.3332L39.1668 15.5949L46.9051 23.3332L50.0002 20.2381L42.2619 12.4998L50.0002 4.76159Z" fill="#0BA98F"/>
</g>
<defs>
<clipPath id="clip0_222_27">
<rect width="80" height="80" fill="white"/>
</clipPath>
</defs>
</svg>
