<svg xmlns="http://www.w3.org/2000/svg" width="69" height="81" viewBox="0 0 69 81"><g transform="translate(0 -0.001)"><path d="M69,17.744,67.563,29.761l-2.875-2.9L38.805,52.934l-9.919-9.846L4.744,67.407,0,62.627,28.895,33.519l9.919,9.99,21.13-21.42-2.875-2.9Z" fill="#25a791"/><path d="M58.938,40.04V80H69V38.448L64.688,34.1Z" fill="#0ba98f"/><path d="M41.688,80H51.751V47.279L41.688,57.414Z" fill="#25a791"/><path d="M24.437,54.953V80H34.5V56.112l-5.606-5.647Z" fill="#0ba98f"/><path d="M7.187,80H17.249V62.192L7.187,72.326Z" fill="#0ba98f"/><path d="M35.558,34.864l-1.017-1.6,2.19-.585,1.593,1.171Z" fill="#25a791"/><path d="M41.372,33.686h.291a.2.2,0,0,1,0,.293,5.781,5.781,0,0,1-2.19,1.171,10.222,10.222,0,0,0-1.744.293l.145.293a9.549,9.549,0,0,1-1.593.585.623.623,0,0,1-.4-.183.632.632,0,0,1-.182-.4v-.146l3.924-1.464Z" fill="#25a791"/><path d="M12.884,35.3l-.872.146-1.017.439.145,2.635.727-.146a6.851,6.851,0,0,1,3.2-1.6c2.18-.3-2.18-1.47-2.18-1.47Z" fill="#25a791"/><path d="M10.412,35.743l-.145-.585H9.686L9.4,37.207h.291a17.1,17.1,0,0,0-.727,3.513c0,1.171,0,2.206.436,2.049l.291-2.635Z" fill="#25a791"/><path d="M18.406,23.152a10.2,10.2,0,0,0,1.163,3.513,12.474,12.474,0,0,1,.872,5.27s-6.1,2.488-7.122,2.928L12.3,35.3s1.593,2.928,1.889,3.367a20.505,20.505,0,0,1,4.36-2.206c2.325-.732,4.8-1.317,5.376-2.489a35.137,35.137,0,0,0,.581-7.173s3.052,1.464,4.36,2.342,6.542,5.278,6.542,5.278,2.035-.439,2.325-2.206c0,0-5.668-4.684-5.959-5.123s-3.488-3.22-4.505-4.245A10.274,10.274,0,0,0,24.8,21.384Z" fill="#25a791"/><path d="M24.656,15.394l3.924,6.148a23.924,23.924,0,0,1-3.924.439c-1.744,0-1.889-.146-1.889-.146S22.331,15.98,24.656,15.394Z" fill="#25a791"/><path d="M29.745,3.83l-.872-.586L28.728,3.1l-.436-.439a.54.54,0,0,1-.145-.439V1.781s.436-.293.581.439c0,0,.291.293.436.293a.506.506,0,0,0,.291-.146V1.635a1.688,1.688,0,0,1,0-.878,3.777,3.777,0,0,1,.291-.732s.436-.146.291.293L29.89.756V1.2h.145A1.469,1.469,0,0,1,30.181.6a1.025,1.025,0,0,1,.291-.586s.291,0,.291.146a3.339,3.339,0,0,1-.145.586,5.814,5.814,0,0,1,.436-.586c.145-.146.291.146.145.293A.728.728,0,0,0,31.053.9v.592H31.2a1.785,1.785,0,0,0,.145-.732c.145-.293,0-.439.291-.586s.291.146.291.439-.145.732-.145.878a6.637,6.637,0,0,1-.291,2.049,11.777,11.777,0,0,0-.281,2.781L29.615,5.294Z" fill="#25a791"/><path d="M24.658,9.832c0-.146-.145-.439-.145-.586.291,0,.581.146.727,0a8.736,8.736,0,0,1,2.19-.293c.436-.146.145-.146.145-.586a21.4,21.4,0,0,0,1.308-1.9,10.546,10.546,0,0,1,.727-2.049c.436.878,2.325,1.171,2.325,1.171S30.045,9.539,29.9,10.271s-.872.878-2.19,1.318a11.752,11.752,0,0,1-2.471.585l-.291-.585a7.413,7.413,0,0,0-.291-1.757Z" fill="#25a791"/><path d="M9.977,20.225l-.291.732.436,1.464s.145.293,0,.293v.439s-.727.146-.581-.732c0,0-.145-.586-.291-.586s-.436.293-.581.439a2.152,2.152,0,0,1-.291.586s-.436.878-.727.732,0-.585.145-.878c0,0-.436.732-.727.732-.145,0-.291-.146-.145-.439s.436-.732.436-.732-.436.732-.727.586.291-.732.436-.878v-.146s-.727.732-.872.586c-.291-.146.145-.586.291-.732a3.191,3.191,0,0,0,.581-.732,14.384,14.384,0,0,1,1.017-1.464l.436-.439Z" fill="#25a791"/><path d="M24.066,3.538A4.983,4.983,0,0,1,24.5,4.709v.433a3.21,3.21,0,0,0,.436.732s0,.293-.145.293-.145.439-.145.439a.145.145,0,0,1-.042.1.143.143,0,0,1-.1.042.2.2,0,0,1,.047.067.2.2,0,0,1,0,.16.2.2,0,0,1-.047.067c-.145.146-.145.293,0,.586s-.436.439-.727.439c-.436,0-1.017.732-1.017,1.171v.586L20.869,8.8A2.367,2.367,0,0,1,20,6.9V6.606s1.017-3.513,1.744-3.952,2.325.884,2.325.884Z" fill="#25a791"/><path d="M23.641,8.222a.994.994,0,0,0-.727.439A5.329,5.329,0,0,1,21.606,6.9,7.4,7.4,0,0,0,23.641,8.222Z" fill="#25a791"/><path d="M23.059,8.368s1.593.586,1.889,1.757a21.044,21.044,0,0,1-.291,4.831s-.436,5.562-.581,6.733l-3.924-.439V7.929L22.768,9.1Z" fill="#25a791"/><path d="M23.059,8.368l-.436.439.727,1.317.291-1.6Z" fill="#25a791"/><path d="M24.076,3.538a5.955,5.955,0,0,0-1.308-.293s.291.878-.145,1.317a1.512,1.512,0,0,0,0,1.171h-.436s0-.878-.727-.878-.727,1.6-.872,1.757a.609.609,0,0,1-.727-.293,4.767,4.767,0,0,1-.291-3.367,2.889,2.889,0,0,1,3.343-1.025c1.163.146,1.744.732,1.163,1.61Z" fill="#25a791"/><path d="M22.188,5.467a.6.6,0,1,0-1.132.269.6.6,0,1,0,1.132-.269Z" fill="#25a791"/><path d="M20.007,6.9a3.71,3.71,0,0,1,1.744,1.025,8.838,8.838,0,0,1,1.017,1.171l-.291,1.464L19.862,8.067l-.145-.293C19.862,7.482,19.862,7.189,20.007,6.9Z" fill="#25a791"/><path d="M24.22,9.392a24.032,24.032,0,0,1,.145,4.684c0,1.317-.872.878-.145,1.9s2.761,3.66,3.343,4.391a7.546,7.546,0,0,1,.872,1.025,18.143,18.143,0,0,1-.872-2.488,9.155,9.155,0,0,0-.581-2.342,9.59,9.59,0,0,1-1.163-2.489,27.191,27.191,0,0,0-.581-3.367,6.753,6.753,0,0,0-1.453-2.635c-.145,0-.291.146-.581,0a.531.531,0,0,0-.436.146A2.466,2.466,0,0,1,24.22,9.392Z" fill="#25a791"/><path d="M21.168,15.98,21.313,17a2.457,2.457,0,0,0,.872,1.171c.727.586,1.308.878,1.593,1.757a6.68,6.68,0,0,1,.291,2.781c-.291.439-5.232,1.9-6.1,1.318a38.567,38.567,0,0,0-.436-6.294,16.006,16.006,0,0,1-.872-4.1c0-1.171-.727-4.245.145-5.123a1.386,1.386,0,0,1,1.889,0,3.236,3.236,0,0,1,1.453-.732c.581.146.727.439,1.017,1.317.006.732.006,6.88.006,6.88Z" fill="#25a791"/><path d="M20.005,6.9s0,.146.581.732a7.508,7.508,0,0,1,1.163,4.391A40.579,40.579,0,0,0,21.168,17a13.459,13.459,0,0,1-.436-2.928c0-1.317.436-3.66-.291-4.831h.291S19.278,8.075,20.005,6.9Z" fill="#25a791"/><path d="M16.517,13.493A3.181,3.181,0,0,0,18.261,11c.291-1.9-.872-3.367-1.593-2.635a3.289,3.289,0,0,0-.872,1.6,17.432,17.432,0,0,1-2.035,1.757,27.942,27.942,0,0,0-2.471,1.9,29.2,29.2,0,0,0-4.069,6A15.408,15.408,0,0,1,9.692,21.1a22.74,22.74,0,0,1,2.471-3.66,31.886,31.886,0,0,1,4.354-3.946Z" fill="#25a791"/><path d="M12.011,35.45A4.283,4.283,0,0,0,11.43,37.5a2.473,2.473,0,0,0,.581,1.171,9.291,9.291,0,0,0-1.889,2.342c-.436,1.171-.436,1.757-.727,1.757a6.738,6.738,0,0,1-.145-2.206c.145-1.025.581-2.635.727-3.22a18.462,18.462,0,0,0,.291-2.206s.436-.419,1.744.313Z" fill="#25a791"/><path d="M35.413,34.572s1.017,0,1.163-.293a4.663,4.663,0,0,1,.872-1.171s1.017.439,1.308.586a2.91,2.91,0,0,0,1.593,0c.581-.146.872-.146,1.163.146a6.789,6.789,0,0,1-2.19,1.171c-.872.146-1.744.146-2.19.586a3.03,3.03,0,0,1-1.744.439c.171-.293-.41-1.171.026-1.464Z" fill="#25a791"/></g></svg>