<svg xmlns="http://www.w3.org/2000/svg" width="66.018" height="81" viewBox="0 0 66.018 81">
  <g id="features_icon5" transform="translate(-116.788 -9.428)">
    <path id="Path_2048" data-name="Path 2048" d="M141.375,119.693c.757,1.055,1.453,2.064,2.19,3.042.685.908.709,1.191.057,2.122-.157.224-.281.471-.476.8-1.219-1.731-2.424-3.407-3.581-5.116a2.6,2.6,0,0,1-.237-1.058c-.136-.957-.451-1.329-1.41-1.472-1.864-.276-3.732-.525-5.6-.773a19.43,19.43,0,0,1-7.022-1.816,14.8,14.8,0,0,1-7.876-10.955,13.412,13.412,0,0,1,1.647-9.264,11.927,11.927,0,0,1,8.449-5.747c7.542-1.442,14.118,3.291,16.454,9.785a15.439,15.439,0,0,1,.329,8.658c-.442,2.056-.816,4.127-1.192,6.2-.185,1.018.022,1.483.966,1.888a4.288,4.288,0,0,1,1.874,1.615c.611.888,1.255,1.755,1.9,2.654l-1.55,1.3-2.571-3.547Zm-17.911-18.458c0-.165.009-.33,0-.494a1,1,0,0,0-1.011-.962.832.832,0,0,0-.929.746,6.784,6.784,0,0,0-.166,1.027,10.6,10.6,0,0,0,3.2,8.3,10,10,0,0,0,5,2.819.993.993,0,0,0,1.293-.628c.2-.516.039-.887-.589-1.246s-1.307-.663-1.934-1.039a14.853,14.853,0,0,1-2.332-1.529A7.86,7.86,0,0,1,123.464,101.235Z" transform="translate(-0.373 -70.998)" fill="#0ba98f"/>
    <path id="Path_2049" data-name="Path 2049" d="M364.09,376.04c-.488-.339-.9-.61-1.29-.9a.79.79,0,0,1-.29-.97,12.878,12.878,0,0,1,8.613-8.562,13.286,13.286,0,0,1,17.021,9.451,25.686,25.686,0,0,1,.426,3.311c.034.3.005.608.005,1.057,2.228-2.176,4.706-3.144,7.685-2.324a6.716,6.716,0,0,1,4.363,3.5,7.224,7.224,0,0,1-3.5,9.976c-3.939,1.764-9.057-.431-10.138-5.771-3.21,4.9-7.56,7.414-13.475,6.742-3.134-.356-6.4-2.013-7.915-4.062l1.38-1.274,1.622,1.311a43.564,43.564,0,0,1,6.066-9c3.064,3.347,3.18,7.071,1.412,11.117a12.984,12.984,0,0,0,2.084-.424,1.417,1.417,0,0,0,.643-.878,10.96,10.96,0,0,0-2-10.489c-.217-.27-.423-.549-.649-.842l1.206-1.272a32.842,32.842,0,0,1,6.088,10.465,16.906,16.906,0,0,0,1.2-1.815,1.365,1.365,0,0,0-.084-.987,33.407,33.407,0,0,0-4.864-8.248c-.2-.24-.374-.5-.556-.738.474-.771.557-.8,1.235-.224a10.786,10.786,0,0,0,6,2.5,9.41,9.41,0,0,0-.511-1.817c-.141-.28-.6-.447-.951-.565a8.618,8.618,0,0,1-3.393-1.964l2.222-1.523a12.838,12.838,0,0,0-1.483-1.085,1.1,1.1,0,0,0-.86.1,13.831,13.831,0,0,0-1.371.908,7.967,7.967,0,0,1-.65-1.7,1.9,1.9,0,0,0-2.047-1.784c-.142-.009-.282-.036-.477-.063a11.455,11.455,0,0,0,1.576,4.744c-.031.059-.04.1-.066.121-.775.67-.785.681-1.6.044a27.721,27.721,0,0,0-5.271-3.354,2.34,2.34,0,0,0-3.339.859c1.368.619,2.767,1.189,4.107,1.876a15.537,15.537,0,0,1,3.691,2.714c-.427.4-.811.79-1.227,1.141-.392.331-.773.061-1.122-.112a10.815,10.815,0,0,0-5.205-1.121,23.161,23.161,0,0,0-2.827.35A1.642,1.642,0,0,0,364.09,376.04Zm34.242,10.966c1.538-1.516,1.521-4.671,0-5.956A4.515,4.515,0,0,0,398.332,387.006Zm-8.419.035c1.519-1.524,1.51-4.726-.017-5.992A4.847,4.847,0,0,0,389.913,387.041Z" transform="translate(-218.647 -316.406)" fill="#0ba98f"/>
    <path id="Path_2050" data-name="Path 2050" d="M147.724,449.441a3.438,3.438,0,0,1-1.228,2.606,24.466,24.466,0,0,1-9.251,5.837,15.572,15.572,0,0,1-11.994-.731,27.016,27.016,0,0,1-7.63-5.582,3.022,3.022,0,0,1,.1-4.265,25.55,25.55,0,0,1,8.322-5.71,15.769,15.769,0,0,1,15.385,1.5c1.759,1.177,3.367,2.584,5.02,3.915A2.971,2.971,0,0,1,147.724,449.441Zm-11.887,2.543a3.089,3.089,0,0,0,.889-.4,16.864,16.864,0,0,0,1.242-1.455.765.765,0,0,0-.112-1.126c-.421-.406-.839-.819-1.3-1.182a.939.939,0,0,0-1.462.25c-.551.8-1.2.818-1.771.046a.958.958,0,0,0-1.738,0c-.566.759-1.275.75-1.776-.022a.968.968,0,0,0-1.5-.265c-.431.34-.856.689-1.263,1.057a1.009,1.009,0,0,0,.044,1.608,11.486,11.486,0,0,1,1,1.009.914.914,0,0,0,1.469.07,6.13,6.13,0,0,0,.416-.576c.069-.09.159-.233.24-.233.407,0,.872-.177,1.122.368a1.441,1.441,0,0,0,.426.422,1,1,0,0,0,1.72-.394.622.622,0,0,1,.646-.439,1,1,0,0,1,1.057.6A3.24,3.24,0,0,0,135.837,451.984Zm-14.27-5.522a28.333,28.333,0,0,0-2.412,2.376.971.971,0,0,0,.127,1.51c.44.385.839.816,1.261,1.222.318.306.643.606,1.026.966A14.17,14.17,0,0,0,121.567,446.462Zm21.363,0-.178.142c0,1.793,0,3.586.007,5.378,0,.126.069.323.156.357a.463.463,0,0,0,.381-.119c.648-.591,1.3-1.185,1.916-1.806a1.224,1.224,0,0,0,.212-1.465C144.618,448.1,143.764,447.289,142.93,446.463Z" transform="translate(0 -383.46)" fill="#0ba98f"/>
    <path id="Path_2051" data-name="Path 2051" d="M404.212,47.732c-.1-.936-.186-1.787-.285-2.636-.269-2.307-.618-4.607-.8-6.921-.229-2.917-.4-5.843-.459-8.767-.072-3.332,0-6.668.008-10,0-1.759.047-3.519-.009-5.276-.115-3.56,2.413-5.015,5.5-4.646a3.94,3.94,0,0,1,3.71,4.316c.025,6.705.1,13.412-.014,20.115a63.063,63.063,0,0,1-.886,7.179c-.213,1.6-.447,3.188-.69,4.78-.025.166-.142.423-.264.454C408.124,46.8,406.221,47.252,404.212,47.732Z" transform="translate(-254.415 0)" fill="#0ba98f"/>
    <path id="Path_2052" data-name="Path 2052" d="M512.258,53.491a10.816,10.816,0,0,1-1.13-1.5,1.459,1.459,0,0,1,.058-1.033c.509-1.372,1.063-2.726,1.609-4.084q1.32-3.285,2.649-6.566c.04-.1.062-.2.107-.355l-7.5-3.091L503.9,47.176l-1.962-.532c.078-.2.138-.361.2-.521q4.125-10.232,8.246-20.465a3.349,3.349,0,0,1,1.952-1.966,6.264,6.264,0,0,0,3.718-3.864q1.668-4.268,3.4-8.511c.8-1.962,1.544-2.249,3.5-1.472.425.169.856.327,1.263.532a1.921,1.921,0,0,1,1.087,2.681c-.844,2.223-1.74,4.426-2.626,6.632-.43,1.07-.881,2.131-1.335,3.19a4.115,4.115,0,0,0,.05,3.748,5.02,5.02,0,0,1,.025,4.363c-1.266,3.159-2.579,6.3-3.858,9.452Q515.117,46.468,512.7,52.5C512.575,52.8,512.434,53.1,512.258,53.491Zm6.906-26.412a2.937,2.937,0,0,0-1.7-3.007,3.034,3.034,0,0,0-3.117,1.043Z" transform="translate(-342.796 -0.015)" fill="#0ba98f"/>
    <path id="Path_2053" data-name="Path 2053" d="M393.467,468.854l-4.391,6c.338-2.931-1.4-4.659-3.363-6.328A8.962,8.962,0,0,1,393.467,468.854Z" transform="translate(-239.351 -407.967)" fill="#0ba98f"/>
  </g>
</svg>
