<svg width="79" height="81" viewBox="0 0 79 81" fill="none" xmlns="http://www.w3.org/2000/svg">
<path fill-rule="evenodd" clip-rule="evenodd" d="M56.4481 11.4854C56.4481 12.9111 56.4221 14.1127 56.3683 15.0893C56.3683 15.3016 56.2506 15.5519 56.0136 15.8418C55.7498 16.1064 55.5001 16.2775 55.2631 16.3567C38.1723 21.6897 21.9773 21.6105 6.67812 16.119C6.65205 16.0929 6.58569 15.9868 6.48062 15.8022C14.9076 17.2018 23.3858 17.1487 31.9186 15.6438C39.8708 14.2711 48.0473 11.5915 56.4481 7.60498C56.4481 8.52854 56.4481 9.82201 56.4481 11.4854ZM65.9676 18.4557C65.9676 19.46 65.8096 20.2117 65.4936 20.7139C65.1776 21.2422 64.5978 21.6905 63.7556 22.0604C63.1236 22.298 61.9386 22.6679 60.2006 23.1685C43.8216 27.6573 27.4417 26.8256 11.0626 20.6743C10.6155 20.4897 10.2205 20.1856 9.87762 19.7634C28.6267 24.622 47.2312 22.8398 65.6911 14.4169C65.8752 16.4493 65.9676 17.7959 65.9676 18.4557ZM39.5026 33.2279C35.1316 33.2279 31.3656 34.7725 28.2056 37.8616C25.1246 41.0299 23.5833 44.8066 23.5833 49.1891C23.5833 53.5717 25.1246 57.3206 28.2056 60.4359C31.3656 63.6042 35.1316 65.1883 39.5026 65.1883C43.8998 65.1883 47.6396 63.6184 50.7206 60.4763L50.7601 60.4359C53.8941 57.3206 55.4606 53.5717 55.4606 49.1891C55.4606 44.8066 53.8806 41.0299 50.7206 37.8616C47.6396 34.7725 43.8998 33.2279 39.5026 33.2279ZM75.0131 22.6545C75.0131 26.8525 75.0131 33.1495 75.0131 41.5456C75.0131 49.0442 75.0266 55.3547 75.0526 60.4763C75.0787 61.506 74.8946 62.3107 74.4996 62.8921C74.1307 63.4466 73.4726 63.9345 72.5246 64.3575C50.5366 74.0208 28.5351 74.0208 6.52012 64.3575C5.57212 63.9614 4.90062 63.4862 4.50562 62.9317C4.11062 62.3242 3.92655 61.506 3.95262 60.4763C4.00476 54.9317 4.03162 48.2513 4.03162 40.4359C4.00555 31.407 3.99212 24.5943 3.99212 20.0002C15.8951 25.5448 27.7316 28.3171 39.5026 28.3171C51.2476 28.3432 63.0446 25.5844 74.8946 20.0398C74.9736 21.6509 75.0131 22.5222 75.0131 22.6545ZM46.1386 45.9408H41.2801C41.0961 47.2351 40.5162 48.3432 39.5421 49.2676C39.0152 49.8481 38.4227 50.2711 37.7646 50.5349L42.9786 57.822L41.0826 59.1685L33.6171 48.8319L35.6719 48.6339C36.5409 48.5816 37.2914 48.2378 37.9234 47.6042C38.4227 47.1289 38.7387 46.5745 38.8706 45.9408H32.8666V43.6042H38.6739C38.4898 43.182 38.2394 42.8264 37.9234 42.5349C37.2385 41.9274 36.4485 41.5971 35.5534 41.5448H32.8674V39.2081H46.1386V41.5448H40.1346C40.5826 42.1523 40.9112 42.839 41.1221 43.6042H46.1386V45.9408Z" fill="#0BA98F"/>
</svg>
