<svg width="82" height="80" viewBox="0 0 82 80" fill="none" xmlns="http://www.w3.org/2000/svg">
<g clip-path="url(#clip0_222_44)">
<path d="M78.4741 80.3629H59.6879L63.2795 60.6598C68.0288 63.143 72.52 66.0965 76.6865 69.4763C77.2466 69.9434 77.6967 70.5297 78.0044 71.1928C78.3121 71.856 78.4697 72.5795 78.4659 73.3113L78.4741 80.3629ZM51.8733 70.3505L50.4055 80.3629H56.7687L55.3009 70.3505L57.1869 67.3072L54.4071 63.7196L61.8691 58.2598V54.8618C62.5482 53.6872 63.012 52.3994 63.2385 51.0598C63.7797 51.0185 64.4849 50.235 65.2475 47.5381C66.2561 43.9505 65.2475 43.3237 64.3455 43.3649C66.6251 32.8577 60.7539 32.8247 60.7539 32.8247C60.2619 30.6227 57.1541 28.3381 54.2513 28.9402C51.3485 29.5423 45.3871 28.866 45.3871 28.866C45.3892 29.2762 45.4797 29.681 45.6525 30.0527C45.8252 30.4243 46.0759 30.7538 46.3875 31.0185C41.1395 34.235 42.3449 41.3278 42.8123 43.3897C41.9185 43.3897 40.9919 44.0742 41.9923 47.5711C42.7549 50.2845 43.4683 51.0433 44.0013 51.0928C44.2279 52.4323 44.6918 53.7201 45.3707 54.8948V58.2845L52.7671 63.7196L49.9709 67.3072L51.8733 70.3505ZM43.8947 60.668C40.6488 62.385 37.5179 64.3136 34.5221 66.4412C33.5667 66.12 32.6351 65.7315 31.7341 65.2783L31.5373 65.1546C31.304 65.0041 31.1124 64.7965 30.9805 64.5513C30.8486 64.3062 30.7806 64.0313 30.7829 63.7526V61.5505V60.8247C30.7829 60.8247 37.2445 61.0227 40.3031 57.8722C40.3031 57.8722 35.8423 56.602 36.6459 48.4371C37.4495 40.2722 35.6455 33.1051 29.1183 33.7072C29.1183 33.7072 26.2893 30.2845 20.6559 32.4371C18.7207 33.1794 13.5383 35.0433 13.8007 46.3587C14.0631 57.6742 9.8073 57.7319 9.8073 57.7319C9.8073 57.7319 12.0049 60.9484 19.4669 60.8825V63.7113C19.4692 63.9901 19.4012 64.2649 19.2693 64.5101C19.1374 64.7553 18.9458 64.9629 18.7125 65.1134L18.5485 65.2124C16.2789 66.219 13.9348 67.0463 11.5375 67.6866C10.0151 68.0928 8.53507 68.6452 7.1177 69.3361C6.28946 69.7304 5.57649 70.3331 5.04783 71.0859C4.51916 71.8387 4.19272 72.7161 4.1001 73.633V80.3299H47.4863L43.8947 60.668ZM33.5955 29.1711V23.9175H30.6271C29.7942 23.9175 28.9953 23.5847 28.4064 22.9923C27.8174 22.4 27.4865 21.5965 27.4865 20.7588V5.26184C27.4887 4.42552 27.8205 3.62419 28.4093 3.03359C28.998 2.44299 29.7956 2.11133 30.6271 2.11133H52.4227C53.2556 2.11133 54.0545 2.44413 54.6434 3.03651C55.2324 3.62889 55.5633 4.43233 55.5633 5.27009V20.7835C55.5568 21.617 55.2231 22.4141 54.6348 23.0011C54.0465 23.5881 53.2514 23.9175 52.4227 23.9175H43.0173L34.5795 29.6907C34.485 29.7547 34.375 29.7918 34.2613 29.798C34.1475 29.8043 34.0342 29.7795 33.9334 29.7262C33.8325 29.6729 33.7478 29.5932 33.6884 29.4955C33.6289 29.3978 33.5968 29.2857 33.5955 29.1711ZM43.1157 10.4165C43.1157 10.7998 43.2287 11.1745 43.4405 11.4933C43.6522 11.812 43.9532 12.0604 44.3053 12.2071C44.6574 12.3538 45.0448 12.3922 45.4186 12.3174C45.7924 12.2426 46.1358 12.058 46.4053 11.787C46.6748 11.5159 46.8583 11.1706 46.9327 10.7946C47.007 10.4186 46.9689 10.0289 46.823 9.67479C46.6772 9.32064 46.4302 9.01794 46.1133 8.80497C45.7964 8.59201 45.4238 8.47834 45.0427 8.47834C44.5316 8.47834 44.0415 8.68254 43.6801 9.04601C43.3187 9.40948 43.1157 9.90246 43.1157 10.4165ZM36.8345 10.4165C36.8345 10.7998 36.9475 11.1745 37.1593 11.4933C37.371 11.812 37.672 12.0604 38.0241 12.2071C38.3762 12.3538 38.7636 12.3922 39.1374 12.3174C39.5112 12.2426 39.8546 12.058 40.1241 11.787C40.3936 11.5159 40.5771 11.1706 40.6515 10.7946C40.7258 10.4186 40.6877 10.0289 40.5418 9.67479C40.396 9.32064 40.149 9.01794 39.8321 8.80497C39.5152 8.59201 39.1426 8.47834 38.7615 8.47834C38.2504 8.47834 37.7603 8.68254 37.3989 9.04601C37.0375 9.40948 36.8345 9.90246 36.8345 10.4165V10.4165ZM41.9103 18.4825C45.9611 18.4825 48.1505 14.5814 47.4781 14.4082C46.8057 14.235 45.6249 15.3402 41.9103 15.3402C38.1957 15.3402 36.9903 14.235 36.3425 14.4082C35.6947 14.5814 37.8595 18.4742 41.9103 18.4742V18.4825Z" fill="#0BA98F"/>
</g>
<defs>
<clipPath id="clip0_222_44">
<rect width="82" height="80" fill="white"/>
</clipPath>
</defs>
</svg>
