<svg width="88" height="81" viewBox="0 0 88 81" fill="none" xmlns="http://www.w3.org/2000/svg">
<g clip-path="url(#clip0_222_48)">
<path d="M26.9891 58.6284H12.3224C11.35 58.6284 10.4173 59.0145 9.7297 59.7017C9.04207 60.3888 8.65576 61.3209 8.65576 62.2927V80.6141H30.6558V62.2927C30.6558 61.3209 30.2695 60.3888 29.5818 59.7017C28.8942 59.0145 27.9616 58.6284 26.9891 58.6284Z" fill="#0BA98F"/>
<path d="M52.6556 36.6431H37.9889C37.0165 36.6431 36.0838 37.0291 35.3962 37.7163C34.7086 38.4035 34.3223 39.3355 34.3223 40.3074V80.6145H56.3223V40.3074C56.3223 39.3355 55.936 38.4035 55.2483 37.7163C54.5607 37.0291 53.6281 36.6431 52.6556 36.6431Z" fill="#0BA98F"/>
<path d="M78.3221 47.6353H63.6554C62.683 47.6353 61.7503 48.0213 61.0627 48.7085C60.3751 49.3957 59.9888 50.3277 59.9888 51.2995V80.6138H81.9888V51.2995C81.9888 50.3277 81.6025 49.3957 80.9148 48.7085C80.2272 48.0213 79.2946 47.6353 78.3221 47.6353Z" fill="#0BA98F"/>
<path d="M45.3223 7.3291L41.6556 14.6577L34.3223 15.7276L40.4346 20.766L38.5243 29.3148L45.3223 24.4303L52.1203 29.3148L50.2099 20.766L56.3223 15.7276L48.9889 14.6577L45.3223 7.3291Z" fill="#0BA98F"/>
</g>
<defs>
<clipPath id="clip0_222_48">
<rect width="88" height="81" fill="white"/>
</clipPath>
</defs>
</svg>
