<svg width="83" height="81" viewBox="0 0 83 81" fill="none" xmlns="http://www.w3.org/2000/svg">
<g clip-path="url(#clip0_222_55)">
<path d="M74.8709 47.856L70.9699 25.5397C70.8039 24.3825 69.8909 23.4733 68.7289 23.1427C67.8989 22.8948 66.9859 23.0601 66.2389 23.556C65.4919 24.0519 65.0769 24.8784 64.9939 25.7876L63.9979 38.8468C64.5789 39.0948 65.2429 39.4254 65.6579 40.004C67.4839 41.8223 67.7329 44.7152 66.0729 46.7815L59.6819 54.9642C59.1839 55.6254 58.1879 55.7907 57.5239 55.2121C56.8599 54.7162 56.6939 53.7244 57.2749 53.0631L63.6659 44.8805C64.3299 44.054 64.2469 42.8968 63.4999 42.2356C63.0849 41.8223 62.5869 41.657 62.0889 41.657C61.6739 41.657 61.2589 41.8223 60.8439 42.0703L51.4649 48.9305C49.6389 50.2529 48.3939 52.3193 48.1449 54.5509L46.4849 67.3621H63.9979L72.2979 57.4437C74.5389 54.7162 75.4519 51.2448 74.8709 47.856Z" fill="#0BA98F"/>
<path d="M64.3301 70.3379H45.7381C44.7421 70.3379 43.9121 71.1644 43.9121 72.1563V78.7685C43.9121 79.7603 44.7421 80.5869 45.7381 80.5869H64.3301C65.3261 80.5869 66.1561 79.7603 66.1561 78.7685V72.1563C66.0731 71.1644 65.3261 70.3379 64.3301 70.3379Z" fill="#0BA98F"/>
<path d="M35.8609 67.2796L34.2009 54.4684C33.8689 52.2367 32.7069 50.1704 30.8809 48.848L21.5019 41.9878C20.6719 41.4092 19.5929 41.4918 18.8459 42.1531C18.0989 42.8969 18.0159 44.0541 18.6799 44.798L25.1539 52.9806C25.6519 53.6418 25.5689 54.6337 24.9049 55.1296C24.2409 55.6255 23.2449 55.5429 22.7469 54.8816L16.2729 46.699C14.6959 44.6327 14.8619 41.7398 16.6879 39.9214C17.1859 39.4255 17.7669 39.0123 18.4309 38.7643L17.4349 25.7051C17.3519 24.7959 16.9369 23.9694 16.1899 23.4735C15.4429 22.9776 14.5299 22.8123 13.6999 23.0602C12.5379 23.3082 11.7079 24.3 11.5419 25.4571L7.64091 47.7735C7.05991 51.1622 7.97291 54.6337 10.2139 57.2786L18.5139 67.1969H35.8609V67.2796Z" fill="#0BA98F"/>
<path d="M36.6079 70.3379H18.0159C17.0199 70.3379 16.1899 71.1644 16.1899 72.1563V78.7685C16.1899 79.7603 17.0199 80.5869 18.0159 80.5869H36.6079C37.6039 80.5869 38.4339 79.7603 38.4339 78.7685V72.1563C38.4339 71.1644 37.6039 70.3379 36.6079 70.3379Z" fill="#0BA98F"/>
<path d="M41.1727 13.3072C42.1687 13.3072 42.9987 12.4807 42.9987 11.4889V3.88477C42.9987 2.89294 42.1687 2.06641 41.1727 2.06641C40.1767 2.06641 39.3467 2.89294 39.3467 3.88477V11.4889C39.3467 12.4807 40.1767 13.3072 41.1727 13.3072Z" fill="#0BA98F"/>
<path d="M50.4691 15.1256C50.7181 15.2082 50.9671 15.2909 51.1331 15.2909C51.8801 15.2909 52.5441 14.8776 52.7931 14.1337L55.6981 7.10823C56.1131 6.19905 55.6151 5.12456 54.7021 4.71129C53.7891 4.29803 52.7101 4.79395 52.2951 5.70313L49.4731 12.8113C49.0581 13.7205 49.5561 14.795 50.4691 15.1256Z" fill="#0BA98F"/>
<path d="M59.5987 20.9114C60.0967 20.9114 60.5117 20.7461 60.9267 20.4155L66.3217 15.043C67.0687 14.2991 67.0687 13.2246 66.3217 12.4808C65.5747 11.7369 64.4957 11.7369 63.7487 12.4808L58.3537 17.8532C57.6067 18.5971 57.6067 19.6716 58.3537 20.4155C58.6857 20.7461 59.1007 20.9114 59.5987 20.9114Z" fill="#0BA98F"/>
<path d="M29.5529 14.1337C29.8019 14.795 30.5489 15.2909 31.2129 15.2909C31.4619 15.2909 31.7109 15.2082 31.8769 15.1256C32.7899 14.7123 33.2879 13.7205 32.8729 12.7286L29.9679 5.70313C29.5529 4.79395 28.4739 4.29803 27.5609 4.71129C26.6479 5.12456 26.1499 6.1164 26.5649 7.10823L29.5529 14.1337Z" fill="#0BA98F"/>
<path d="M21.4191 20.4156C21.7511 20.7462 22.2491 20.9115 22.7471 20.9115C23.2451 20.9115 23.6601 20.7462 24.0751 20.4156C24.8221 19.6717 24.8221 18.5972 24.0751 17.8533L18.5971 12.3982C17.8501 11.6544 16.7711 11.6544 16.0241 12.3982C15.2771 13.1421 15.2771 14.2166 16.0241 14.9605L21.4191 20.4156Z" fill="#0BA98F"/>
<path d="M45.1571 43.5585C45.2401 43.3932 45.1571 43.1452 45.0741 42.9799L38.0191 35.7891H38.5171C41.8371 35.7891 44.8251 33.4748 45.4891 30.2513H48.0621C48.3941 30.2513 48.5601 30.0034 48.5601 29.7554V27.6064C48.5601 27.2758 48.3111 27.1105 48.0621 27.1105H45.4891C45.3231 26.284 44.9081 25.4574 44.4931 24.7136H48.0621C48.3941 24.7136 48.5601 24.4656 48.5601 24.2177V22.0687C48.5601 21.7381 48.3111 21.5728 48.0621 21.5728H34.3671C34.0351 21.5728 33.8691 21.8207 33.8691 22.0687V24.383C33.8691 24.7136 34.1181 24.8789 34.3671 24.8789H38.4341C39.9281 24.8789 41.2561 25.7054 41.9201 27.0279H34.3671C34.0351 27.0279 33.8691 27.2758 33.8691 27.5238V29.7554C33.8691 30.086 34.1181 30.2513 34.3671 30.2513H41.9201C41.3391 31.5738 39.9281 32.4003 38.4341 32.4003H34.3671C34.0351 32.4003 33.8691 32.6483 33.8691 32.8962V36.1197C33.8691 36.285 33.9521 36.3677 34.0351 36.533L41.0901 43.7238C41.1731 43.8064 41.3391 43.8891 41.5051 43.8891H44.7421C44.9081 43.8891 45.0741 43.8064 45.1571 43.5585Z" fill="#0BA98F"/>
</g>
<defs>
<clipPath id="clip0_222_55">
<rect width="83" height="81" fill="white"/>
</clipPath>
</defs>
</svg>
