<svg width="38" height="29" viewBox="0 0 38 29" fill="none" xmlns="http://www.w3.org/2000/svg">
<path d="M37.88 17.0306C37.64 16.129 37.04 15.3842 36.2 14.9138C35.36 14.4434 34.4 14.365 33.48 14.6394L25.16 17.2266C24.88 16.9914 24.6 16.7954 24.24 16.6386L17.92 14.169C16.16 13.4634 14.16 13.3458 12.32 13.8162L8.08 14.9138V14.4042C8.08 13.777 7.56 13.3066 6.96 13.3066H1.12C0.48 13.3066 0 13.8162 0 14.4042V27.0266C0 27.6538 0.52 28.1242 1.12 28.1242H6.92C7.56 28.1242 8.04 27.6146 8.04 27.0266V26.3602L21.24 28.5946C21.64 28.673 22.08 28.7122 22.52 28.7122C24.08 28.7122 25.64 28.2418 26.92 27.3402L36.52 20.6762C37.72 19.853 38.24 18.3634 37.88 17.0306ZM5.8 25.929H2.28V15.5018H5.8V25.929ZM35.24 18.8338L25.64 25.4978C24.48 26.2818 23.04 26.5954 21.68 26.3994L8.08 24.1258V17.1874L12.88 15.9722C14.28 15.6194 15.76 15.6978 17.08 16.2466L23.4 18.7162C23.6 18.7946 23.68 18.9514 23.72 19.0298C23.76 19.1082 23.8 19.265 23.72 19.461C23.6 19.6962 23.36 19.853 23.12 19.8138L15.68 18.6378C15.08 18.5202 14.48 18.9514 14.4 19.5394C14.32 20.1274 14.72 20.7154 15.32 20.7938L22.76 21.9698C22.92 22.009 23.04 22.009 23.2 22.009C24.32 22.009 25.36 21.3426 25.8 20.3234C25.96 20.0098 26 19.657 26.04 19.3042L34.2 16.7954C34.52 16.6778 34.84 16.717 35.12 16.8738C35.4 17.0306 35.6 17.305 35.72 17.6186C35.84 18.0498 35.64 18.5594 35.24 18.8338Z" fill="black"/>
<path d="M24.8403 14.1296C24.9203 14.208 25.0003 14.208 25.0803 14.208H27.0803C27.2003 14.208 27.3203 14.1296 27.4003 14.012C27.4403 13.8944 27.4403 13.7376 27.3203 13.6592L22.9203 9.2688H23.2003C25.2803 9.2688 27.0803 7.85761 27.5603 5.85841H29.1203C29.3203 5.85841 29.4403 5.70161 29.4403 5.54481V4.25121C29.4403 4.05521 29.2803 3.93761 29.1203 3.93761H27.5603C27.4403 3.42801 27.2003 2.91841 26.9203 2.48721H29.1203C29.3203 2.48721 29.4403 2.33041 29.4403 2.17361V0.880006C29.4403 0.684006 29.2803 0.566406 29.1203 0.566406H20.6803C20.4803 0.566406 20.3603 0.723206 20.3603 0.880006V2.29121C20.3603 2.48721 20.5203 2.60481 20.6803 2.60481H23.2403C24.1603 2.60481 25.0003 3.11441 25.4003 3.93761H20.6803C20.4803 3.93761 20.3603 4.09441 20.3603 4.25121V5.54481C20.3603 5.74081 20.5203 5.85841 20.6803 5.85841H25.3603C24.9603 6.68161 24.1603 7.19121 23.2003 7.19121H20.6403C20.4403 7.19121 20.3203 7.34801 20.3203 7.50481V9.4648C20.3203 9.54321 20.3603 9.6216 20.4003 9.7L24.8403 14.1296Z" fill="black"/>
</svg>
