<svg width="38" height="34" viewBox="0 0 38 34" fill="none" xmlns="http://www.w3.org/2000/svg">
<path d="M36.4556 22.973L34.9913 22.784C34.9111 22.556 34.8109 22.3237 34.6804 22.0579L35.5794 20.9012C35.8189 20.6042 35.7971 20.1758 35.5293 19.9031L33.7166 18.0758C33.5763 17.936 33.3908 17.8592 33.1941 17.8592C33.0244 17.8592 32.8584 17.9187 32.7296 18.0239L31.5796 18.9318C31.3144 18.7995 31.0834 18.6984 30.8593 18.6188L30.6721 17.1416C30.6249 16.7864 30.3336 16.5137 29.9791 16.4931L27.4126 16.4929C27.3673 16.489 27.3214 16.4894 27.2764 16.4939L27.2553 16.4971C26.9369 16.5603 26.6981 16.821 26.6614 17.1429L26.4744 18.6189C26.2476 18.6996 26.0169 18.8004 25.7538 18.9319L24.6068 18.0259C24.4749 17.9182 24.3089 17.8589 24.1393 17.8589C23.9418 17.8589 23.7568 17.9357 23.6156 18.0765L21.8031 19.9035C21.5361 20.1755 21.5149 20.6044 21.7516 20.8987L22.6524 22.0576C22.5209 22.325 22.4209 22.558 22.3416 22.7837L20.8761 22.9727C20.5056 23.0229 20.2293 23.3444 20.2324 23.7191V26.3034L20.2329 26.3165C20.2536 26.6742 20.5241 26.9679 20.8773 27.0154L22.3418 27.2037C22.4219 27.4317 22.5216 27.6644 22.6524 27.9302L21.7533 29.0865C21.5146 29.3835 21.5358 29.8126 21.8038 30.0849L23.6163 31.9119C23.7563 32.0517 23.9418 32.1285 24.1391 32.1285C24.3086 32.1285 24.4746 32.069 24.6033 31.964L25.7533 31.0558C26.0186 31.1884 26.2494 31.2885 26.4739 31.3688L26.6614 32.846C26.7104 33.2158 27.0266 33.495 27.3968 33.495H29.9651L29.9784 33.4947C30.3333 33.4737 30.6243 33.201 30.6714 32.8443L30.8586 31.3685C31.0854 31.2878 31.3163 31.187 31.5791 31.0558L32.7261 31.9615C32.8581 32.0695 33.0241 32.1285 33.1939 32.1285C33.3906 32.1285 33.5761 32.0517 33.7173 31.9113L35.5296 30.0839C35.7966 29.8123 35.8183 29.383 35.5814 29.0894L34.6801 27.9298C34.8123 27.6624 34.9116 27.4297 34.9913 27.2034L36.4564 27.0154C36.8084 26.9675 37.0796 26.6735 37.0999 26.3165L37.1004 23.7208C37.1036 23.3448 36.8276 23.0232 36.4556 22.973ZM35.5656 25.6155L34.3624 25.7631C34.0578 25.7934 33.8113 26.0141 33.7306 26.3144C33.6083 26.7895 33.4274 27.2449 33.1814 27.6652C33.0229 27.9293 33.0459 28.2697 33.2376 28.5173L34.0306 29.4926L33.1286 30.4025L32.1578 29.6011C32.0283 29.4988 31.8659 29.443 31.7014 29.443C31.5656 29.443 31.4326 29.4808 31.3189 29.55C30.9019 29.7982 30.4501 29.9868 29.9743 30.1118C29.6788 30.1925 29.4599 30.4455 29.4306 30.7487L29.2834 31.9842H28.0506L27.9039 30.7527C27.8739 30.4456 27.6549 30.1891 27.3573 30.1073C26.8863 29.9843 26.4346 29.7975 26.0173 29.5495C25.7603 29.3923 25.4161 29.4118 25.1716 29.6036L24.2043 30.402L23.3018 29.4924L24.0968 28.5133C24.2853 28.2699 24.3048 27.9295 24.1481 27.6681C23.9018 27.2478 23.7146 26.7926 23.5906 26.3123C23.5104 26.0145 23.2594 25.7936 22.9591 25.764L21.7326 25.6156V24.3731L22.9538 24.2261C23.2589 24.1959 23.5134 23.9748 23.5949 23.6742C23.7166 23.1995 23.9023 22.7444 24.1481 22.3233C24.3064 22.0599 24.2859 21.7185 24.0944 21.4709L23.3046 20.4987L24.2049 19.6167L25.1763 20.3878C25.3061 20.4898 25.4679 20.5456 25.6326 20.5456C25.7681 20.5456 25.9009 20.5084 26.0151 20.4389C26.4308 20.1914 26.8826 20.0024 27.3598 19.8771C27.6549 19.7961 27.8741 19.5608 27.9038 19.2578L28.0506 18.0402H29.2836L29.4301 19.2533C29.4598 19.5604 29.6786 19.8089 29.9769 19.8905C30.4481 20.0132 30.8999 20.196 31.3173 20.4434C31.5739 20.601 31.9203 20.577 32.1593 20.3897L33.1293 19.6182L34.0301 20.4995L33.2369 21.4754C33.0488 21.7192 33.0289 22.0599 33.1864 22.3217C33.4323 22.7413 33.6198 23.1964 33.7434 23.6774C33.8236 23.9748 34.0574 24.1955 34.3576 24.2251L35.5656 24.3731V25.6155Z" fill="black"/>
<path d="M28.6669 20.6279C26.2786 20.6279 24.3359 22.5871 24.3359 24.9946C24.3359 27.4024 26.2786 29.3612 28.6669 29.3612C31.0563 29.3612 32.9993 27.4024 32.9993 24.9946C32.9993 22.5871 31.0563 20.6279 28.6669 20.6279ZM30.6828 27.0257C30.1468 27.5668 29.4313 27.8644 28.6669 27.8644C27.0976 27.8644 25.8206 26.5771 25.8206 24.9942C25.8206 23.4124 27.0976 22.1248 28.6669 22.1248C29.4313 22.1248 30.1468 22.4222 30.6828 22.9628C31.2193 23.5039 31.5143 24.2251 31.5143 24.9942C31.5143 25.7642 31.2193 26.4854 30.6828 27.0257Z" fill="black"/>
<path d="M2.56608 27.8839V8.4774C2.56608 7.72728 3.17358 7.12046 3.91741 7.12046H31.0459C31.7899 7.12046 32.3994 7.72745 32.3994 8.4774V15.6885H34.0661V8.4774C34.0661 6.75725 32.7526 5.44046 31.0461 5.44046H24.0661V2.30239C24.0661 1.55244 23.4764 0.904297 22.7324 0.904297H12.2312C11.4874 0.904297 10.8996 1.55261 10.8996 2.30239V5.4403H3.91741C2.21108 5.4403 0.899414 6.75708 0.899414 8.47723V27.8838C0.899414 29.6037 2.21108 30.9763 3.91741 30.9763H19.5661V29.1283H3.91741C3.17358 29.1285 2.56608 28.634 2.56608 27.8839ZM12.7327 2.7523H22.2327V5.4403H12.7327V2.7523Z" fill="black"/>
</svg>
