<svg width="28" height="28" viewBox="0 0 28 28" fill="none" xmlns="http://www.w3.org/2000/svg">
<path d="M2 6V26H22V6H2ZM2 4H22C23.1046 4 24 4.89543 24 6V26C24 27.1046 23.1046 28 22 28H2C0.89543 28 0 27.1046 0 26V6C0 4.89543 0.89543 4 2 4Z" fill="black"/>
<path d="M9.92576 19.5116L18.226 9.36679C18.5758 8.93935 19.2058 8.87635 19.6332 9.22607C20.0607 9.5758 20.1237 10.2058 19.774 10.6333L10.774 21.6333C10.3993 22.0912 9.71123 22.1255 9.29289 21.7071L4.29289 16.7071C3.90237 16.3166 3.90237 15.6834 4.29289 15.2929C4.68342 14.9024 5.31658 14.9024 5.70711 15.2929L9.92576 19.5116Z" fill="black"/>
<path d="M4 2C3.44772 2 3 1.55228 3 1C3 0.447715 3.44772 0 4 0H26C27.1046 0 28 0.89543 28 2V23C28 23.5523 27.5523 24 27 24C26.4477 24 26 23.5523 26 23V2H4Z" fill="black"/>
</svg>
