<svg width="30" height="30" viewBox="0 0 30 30" fill="none" xmlns="http://www.w3.org/2000/svg">
<path d="M22.9375 5.0625H1.3125V6.9375H22.9375V5.0625Z" fill="black"/>
<path d="M11.1611 17.9151C10.757 17.9151 10.398 17.656 10.271 17.2718L8.92688 13.2044L8.38356 14.2932C8.22487 14.6112 7.90006 14.8121 7.54469 14.8121H4.3125V12.9371H6.96481L8.26462 10.3323C8.43419 9.99252 8.792 9.78852 9.17081 9.81583C9.54962 9.84308 9.8745 10.0961 9.99369 10.4568L11.1379 13.9194L12.6099 9.22627C12.7296 8.84477 13.0779 8.58115 13.4776 8.56977C13.8764 8.55759 14.2401 8.80152 14.3814 9.17558L15.8023 12.9371H19.9375V14.8121H15.1543C14.7644 14.8121 14.4151 14.5707 14.2773 14.2058L13.5866 12.3773L12.0557 17.2582C11.9339 17.6466 11.5754 17.912 11.1684 17.9151C11.1659 17.9151 11.1635 17.9151 11.1611 17.9151Z" fill="black"/>
<path d="M20.5 3H19.25V4.25H20.5V3Z" fill="black"/>
<path d="M18 3H16.75V4.25H18V3Z" fill="black"/>
<path d="M15.5 3H14.25V4.25H15.5V3Z" fill="black"/>
<path d="M22.6236 24.5081C19.2066 24.5081 16.4268 21.7337 16.4268 18.3234C16.4268 14.9132 19.2067 12.1387 22.6236 12.1387C26.0406 12.1387 28.8204 14.9131 28.8204 18.3234C28.8204 21.7337 26.0405 24.5081 22.6236 24.5081ZM22.6236 14.0137C20.2405 14.0137 18.3018 15.947 18.3018 18.3235C18.3018 20.6999 20.2406 22.6332 22.6236 22.6332C25.0067 22.6332 26.9454 20.6999 26.9454 18.3235C26.9454 15.947 25.0066 14.0137 22.6236 14.0137Z" fill="black"/>
<path d="M18.9474 23H1.3125C0.79475 23 0.375 22.5802 0.375 22.0625V1.3125C0.375 0.79475 0.79475 0.375 1.3125 0.375H22.9375C23.4552 0.375 23.875 0.79475 23.875 1.3125V13.0858H22V2.25H2.25V21.125H18.9474V23Z" fill="black"/>
<path d="M26.1208 22.3782L24.498 23.3174L27.8767 29.1554L29.4995 28.2162L26.1208 22.3782Z" fill="black"/>
</svg>
