<svg width="29" height="35" viewBox="0 0 29 35" fill="none" xmlns="http://www.w3.org/2000/svg">
<path d="M27.2318 29.1099C27.149 29.6899 26.9729 30.2527 26.7101 30.777C26.4653 31.2713 26.1636 31.7356 25.811 32.1606C25.7222 32.2674 25.6556 32.3446 25.5409 32.4698C25.4315 32.594 25.3325 32.7269 25.2449 32.8672C25.1601 33.0044 25.0871 33.1484 25.0266 33.2978C24.997 33.3714 24.9711 33.4486 24.9489 33.5186L24.8934 33.7026C24.8606 33.8226 24.8747 33.9506 24.9328 34.0608C24.991 34.171 25.0888 34.2552 25.2068 34.2966C25.3247 34.3381 25.4541 34.3336 25.5689 34.2842C25.6837 34.2348 25.7754 34.144 25.8258 34.0301L25.8961 33.8534C25.9183 33.8019 25.9368 33.7578 25.959 33.7136C26.0059 33.621 26.0603 33.5324 26.1218 33.4486C26.1855 33.3623 26.256 33.281 26.3327 33.2058C26.4141 33.1285 26.5399 33.0034 26.6398 32.9003C27.0958 32.4328 27.4923 31.9113 27.8201 31.3474C28.1769 30.7177 28.4269 30.0339 28.5601 29.3234C28.5971 29.1357 28.6193 28.9554 28.6415 28.7493C28.6637 28.5432 28.6674 28.3445 28.6711 28.1789L28.697 27.1043L28.7858 22.4565V22.1474C28.7884 22.0097 28.7822 21.8721 28.7673 21.7352C28.7348 21.4466 28.6574 21.1648 28.5379 20.8998C28.2966 20.3464 27.8846 19.8837 27.3613 19.5787C27.0351 19.3896 26.6729 19.27 26.2977 19.2276C25.9225 19.1851 25.5426 19.2207 25.182 19.3322C25.182 19.2917 25.1524 19.2512 25.1339 19.2144C24.8777 18.6854 24.4644 18.2473 23.9499 17.9595C23.6778 17.8075 23.381 17.7042 23.073 17.6541C22.7619 17.6022 22.4443 17.6022 22.1332 17.6541C22.0156 17.6736 21.8994 17.7006 21.7854 17.735C21.7398 17.6278 21.6879 17.5234 21.63 17.4222C21.2751 16.8245 20.7135 16.3758 20.0501 16.16C19.4823 15.9861 18.8751 15.9861 18.3074 16.16L18.2001 11.295V10.8571V10.6363C18.2001 10.5664 18.2001 10.4266 18.1779 10.3235C18.123 9.88221 17.9701 9.45857 17.7302 9.08336C17.4735 8.69783 17.127 8.37969 16.7201 8.156C16.3216 7.91949 15.8702 7.78542 15.4066 7.76592C14.7152 7.73326 14.0353 7.94975 13.4915 8.37564C12.9478 8.80153 12.5767 9.40823 12.4466 10.0843C12.3974 10.4305 12.3739 10.7798 12.3763 11.1294C12.2542 15.4718 12.1432 19.8032 12.0507 23.9542C12.01 23.9161 11.9717 23.8756 11.936 23.8328L11.27 22.7288L10.9185 22.1437C10.8704 22.059 10.7779 21.9229 10.7039 21.8051C10.6299 21.6874 10.5337 21.577 10.4412 21.4666C9.70844 20.6102 8.67231 20.0672 7.54778 19.9504C7.27586 19.9242 7.00201 19.9242 6.73008 19.9504L6.52658 19.9725C6.43573 19.9834 6.34556 19.9994 6.25648 20.0203C5.78696 20.1502 5.38418 20.4519 5.12891 20.8648C4.87364 21.2777 4.78476 21.7714 4.88008 22.2467C4.91799 22.4289 4.98152 22.6048 5.06879 22.7693L5.21678 23.0416L5.50909 23.5862L6.08628 24.6571L8.26558 28.672L9.27198 30.512C9.641 31.1915 10.2 31.75 10.8815 32.1202L10.9185 32.1386H10.9555L13.0201 32.9555H13.0534C13.3007 33.0208 13.5273 33.1475 13.712 33.3235C13.8 33.4108 13.877 33.5085 13.9414 33.6142C14.0087 33.7313 14.0644 33.8545 14.1079 33.9822C14.1516 34.1091 14.2441 34.2135 14.3652 34.2726C14.4863 34.3316 14.626 34.3403 14.7535 34.2969C14.8811 34.2534 14.9861 34.1614 15.0454 34.041C15.1048 33.9205 15.1136 33.7816 15.0699 33.6547C15.0209 33.4725 14.9553 33.2951 14.8738 33.1248C14.7802 32.9346 14.6634 32.7566 14.526 32.5949C14.2288 32.2502 13.8462 31.9888 13.416 31.8368H13.4604L11.5179 31.0162C11.0744 30.7408 10.7209 30.3432 10.5004 29.8717L9.57538 27.9949L7.54408 23.8917L7.00018 22.7877L6.73008 22.2541L6.58949 21.9744C6.58628 21.9537 6.58628 21.9326 6.58949 21.9118C6.58576 21.8766 6.59254 21.8411 6.60899 21.8097C6.62544 21.7783 6.65083 21.7524 6.68199 21.7352C6.91321 21.6936 7.15006 21.6936 7.38128 21.7352C8.03817 21.8187 8.63796 22.1492 9.05738 22.6589C9.10918 22.7214 9.15728 22.7914 9.20538 22.8576C9.25348 22.9238 9.28678 22.9827 9.34968 23.0931L9.68638 23.6819L10.3709 24.8706C10.39 24.9024 10.411 24.9332 10.4338 24.9626C10.7262 25.359 11.1059 25.6838 11.5438 25.912C11.8235 26.0537 12.1296 26.1364 12.4429 26.1549C12.8345 26.1775 13.2232 26.0757 13.5529 25.8642C13.6793 25.778 13.7837 25.6635 13.8576 25.5299C13.9315 25.3963 13.9728 25.2474 13.9784 25.095C14.1375 20.6238 14.2892 15.9208 14.4298 11.2067C14.4298 10.927 14.4298 10.548 14.4631 10.4707C14.4875 10.3364 14.5447 10.21 14.6296 10.1027C14.714 9.99712 14.8224 9.91302 14.9459 9.85735C15.0695 9.80168 15.2045 9.77604 15.34 9.78256C15.4704 9.7914 15.5967 9.8315 15.7082 9.89942C15.8197 9.96735 15.9129 10.0611 15.9801 10.1726C16.0582 10.294 16.1087 10.4309 16.1281 10.5738C16.1281 10.6179 16.1281 10.6216 16.1281 10.6989V10.9197V11.3576L16.3427 18.2576C16.3494 18.4825 16.4345 18.6982 16.5834 18.8677C16.7322 19.0371 16.9356 19.15 17.1588 19.1869C17.382 19.2238 17.6111 19.1826 17.8071 19.0701C18.0031 18.9577 18.1538 18.781 18.2334 18.5704C18.3206 18.338 18.4932 18.1471 18.7164 18.0365C18.9397 17.9258 19.1968 17.9036 19.4359 17.9742C19.6609 18.0428 19.853 18.1906 19.9761 18.3901C20.0423 18.4944 20.0911 18.6087 20.1204 18.7286C20.1536 18.8796 20.166 19.0343 20.1574 19.1886V19.207C20.157 19.3971 20.2155 19.5827 20.3251 19.7384C20.4346 19.8942 20.5898 20.0125 20.7695 20.0773C20.9492 20.1421 21.1445 20.1502 21.329 20.1005C21.5135 20.0508 21.678 19.9457 21.8002 19.7995C21.9535 19.6185 22.1655 19.4962 22.3996 19.4536C22.5122 19.4344 22.6273 19.4344 22.74 19.4536C22.845 19.4666 22.9467 19.499 23.0397 19.5493C23.234 19.653 23.3915 19.8136 23.4911 20.0093C23.5433 20.1079 23.5819 20.2132 23.6058 20.3221C23.628 20.4595 23.6367 20.5988 23.6317 20.7379V20.7858C23.6201 20.9763 23.6721 21.1653 23.7794 21.3236C23.8867 21.4819 24.0435 21.6006 24.2254 21.6613C24.4074 21.722 24.6044 21.7215 24.786 21.6597C24.9676 21.5978 25.1237 21.4782 25.2301 21.3194C25.3835 21.1332 25.5965 21.005 25.8335 20.9561C26.0705 20.9072 26.3172 20.9406 26.5325 21.0507C26.6962 21.1439 26.8365 21.2727 26.9429 21.4276C27.0493 21.5825 27.119 21.7594 27.1467 21.945C27.1515 22.0136 27.1515 22.0824 27.1467 22.151V22.4602L27.2355 27.108L27.2614 28.1826C27.2614 28.3702 27.2614 28.5027 27.2614 28.661C27.2614 28.8192 27.254 28.9627 27.2318 29.1099Z" fill="black"/>
<path d="M2.40081 4.58211C2.42001 5.32071 2.58076 6.04888 2.87441 6.72755C3.05319 6.76433 3.23617 6.77671 3.41831 6.76435C3.57714 6.7746 3.73662 6.76221 3.89191 6.72755C4.18437 6.05236 4.34509 5.32804 4.36551 4.59314C5.10439 4.57274 5.83263 4.41289 6.51151 4.12211C6.5485 3.94429 6.56095 3.7623 6.54851 3.58115C6.55883 3.42318 6.54637 3.26456 6.51151 3.11011C5.83196 2.81642 5.10241 2.65406 4.36181 2.63171C4.3388 1.89479 4.17427 1.16906 3.87711 0.493625C3.70134 0.462307 3.5221 0.454879 3.34431 0.471545C3.1904 0.462038 3.03591 0.47443 2.88551 0.508345C2.58844 1.18381 2.42392 1.90952 2.40081 2.64643C1.65867 2.66903 0.927724 2.83267 0.247413 3.12851C0.210976 3.30266 0.198529 3.48093 0.210413 3.65843C0.200804 3.81151 0.213263 3.96517 0.247413 4.11474C0.928676 4.4057 1.65961 4.56434 2.40081 4.58211Z" fill="black"/>
<path d="M12.1355 3.11453C12.1034 3.28924 12.0922 3.46712 12.1022 3.64445C12.0941 3.79734 12.1053 3.95063 12.1355 4.10077C13.2196 4.78893 16.4867 4.79261 17.5708 4.10077C17.6033 3.92239 17.6145 3.74081 17.6041 3.55981C17.6127 3.40203 17.6015 3.2438 17.5708 3.08877C16.4867 2.42269 13.2196 2.42637 12.1355 3.11453Z" fill="black"/>
<path d="M1.03915 16.6236C1.14081 16.7387 1.2593 16.838 1.39065 16.918C2.12673 16.6118 2.80015 16.174 3.37755 15.6263C3.95371 16.1757 4.62577 16.6159 5.36075 16.9254C5.51622 16.8235 5.65584 16.6995 5.77515 16.5574C5.89576 16.451 5.99932 16.3269 6.08225 16.1894C5.77195 15.4599 5.33061 14.7927 4.77985 14.2206C5.33061 13.6484 5.77195 12.9813 6.08225 12.2518C5.97983 12.0972 5.85517 11.9583 5.71225 11.8396C5.60527 11.7197 5.4805 11.6167 5.34225 11.5342C4.60727 11.8437 3.93521 12.2839 3.35905 12.8332C2.7816 12.2856 2.10819 11.8478 1.37215 11.5415C1.22165 11.6369 1.08581 11.7534 0.968852 11.8875C0.853112 11.9886 0.753328 12.1064 0.672852 12.2371C0.980492 12.9704 1.42066 13.6414 1.97155 14.2169C1.42066 14.7924 0.980492 15.4634 0.672852 16.1967C0.772287 16.3568 0.895823 16.5008 1.03915 16.6236Z" fill="black"/>
</svg>
